<svg id="Layer_1" data-name="Layer 1" xmlns="http://www.w3.org/2000/svg" viewBox="0 0 980.84 940.4"><defs><style>.cls-1{fill:none;}.cls-2{fill:#fff;}.cls-3{fill:#ec008c;}.cls-4{fill:#0092bc;}.cls-5{fill:#2f3273;}.cls-6{fill:#43b02a;}.cls-7{fill:#d9488b;}.cls-8{fill:#f27405;}</style></defs><title>PedalingReliefProject</title><rect x="486.51" y="476.56"/><path class="cls-1" d="M512.93,537.26c0,.07.09.12.13.18S513,537.33,512.93,537.26Z" transform="translate(-20.78 -39.6)"/><path class="cls-1" d="M514.18,538.27l.22.05Z" transform="translate(-20.78 -39.6)"/><path class="cls-1" d="M522.57,537.71l-4.74.58-1.07.11,1.07-.11Z" transform="translate(-20.78 -39.6)"/><path class="cls-1" d="M516.53,538.42l-.89,0Z" transform="translate(-20.78 -39.6)"/><path class="cls-1" d="M478.24,546.87a2.47,2.47,0,0,1-.24.49,3.15,3.15,0,0,1-.58.65l-.31.23A3,3,0,0,0,478.24,546.87Z" transform="translate(-20.78 -39.6)"/><path class="cls-1" d="M473.3,524.17h0l4.61,18.28c.07.28.13.54.19.79.11.49.2.94.26,1.35,0,.2.05.38.06.56a17.86,17.86,0,0,0-.51-2.7Z" transform="translate(-20.78 -39.6)"/><path class="cls-1" d="M515.09,538.44h0Z" transform="translate(-20.78 -39.6)"/><path class="cls-1" d="M478.43,545.18c0,.18,0,.35,0,.52a3.59,3.59,0,0,1,0,.47,3.39,3.39,0,0,1-.13.57A4,4,0,0,0,478.43,545.18Z" transform="translate(-20.78 -39.6)"/><path class="cls-1" d="M514.61,538.38l.24,0Z" transform="translate(-20.78 -39.6)"/><path class="cls-1" d="M513.81,538.11l.18.08Z" transform="translate(-20.78 -39.6)"/><path class="cls-1" d="M513.33,537.75l-.14-.14Z" transform="translate(-20.78 -39.6)"/><path class="cls-1" d="M513.48,537.89l.16.11Z" transform="translate(-20.78 -39.6)"/><path class="cls-1" d="M474.71,549.47a16.48,16.48,0,0,0,1.85-.87,11.45,11.45,0,0,1-1.16.57l-.69.3-17.87,6.67,2.61,10.39,2.09,8.29h0l-4.7-18.68Z" transform="translate(-20.78 -39.6)"/><path class="cls-1" d="M511.69,533.67l.28,1.07Z" transform="translate(-20.78 -39.6)"/><path class="cls-1" d="M511.44,441.51c24.8-6.25,44.42-18.33,36.4-50.14-6.76-26.85-24.87-29.73-56.68-21.72l-19.56,4.93L489.84,447Z" transform="translate(-20.78 -39.6)"/><path class="cls-1" d="M542.16,473.5c-5.79-8.16-11.34-10.49-21.26-8l-24.81,6.25,4.16,16.48.43-.1a28.77,28.77,0,0,1,34,19.1c.83-.08,1.65-.11,2.47-.11a28.77,28.77,0,0,1,27.74,21.27l13.08-5.26Z" transform="translate(-20.78 -39.6)"/><polygon class="cls-1" points="486.5 476.56 486.5 476.56 486.77 477.63 486.5 476.56"/><path class="cls-1" d="M512.38,536.06c.09.24.18.47.27.67C512.56,536.53,512.47,536.3,512.38,536.06Z" transform="translate(-20.78 -39.6)"/><path class="cls-1" d="M512.7,536.84l.12.22Z" transform="translate(-20.78 -39.6)"/><path class="cls-1" d="M512.05,535c.09.33.18.64.28.91C512.23,535.64,512.14,535.33,512.05,535Z" transform="translate(-20.78 -39.6)"/><path d="M513.33,537.75l.15.14Z" transform="translate(-20.78 -39.6)"/><path d="M512.82,537.06c0,.07.07.14.11.2S512.86,537.13,512.82,537.06Z" transform="translate(-20.78 -39.6)"/><path d="M514,538.19l.19.08Z" transform="translate(-20.78 -39.6)"/><path d="M513.64,538l.17.11Z" transform="translate(-20.78 -39.6)"/><path d="M512.33,535.91a.88.88,0,0,0,0,.15A.88.88,0,0,1,512.33,535.91Z" transform="translate(-20.78 -39.6)"/><path d="M512.7,536.84a1.17,1.17,0,0,1-.05-.11l0,.08Z" transform="translate(-20.78 -39.6)"/><path d="M512.05,535c0-.08,0-.17-.08-.26a1,1,0,0,1,0,.18Z" transform="translate(-20.78 -39.6)"/><path d="M513.19,537.61a1.09,1.09,0,0,1-.13-.17A1.09,1.09,0,0,0,513.19,537.61Z" transform="translate(-20.78 -39.6)"/><path d="M514.4,538.32l.21.06Z" transform="translate(-20.78 -39.6)"/><path d="M515.64,538.45h0Z" transform="translate(-20.78 -39.6)"/><path d="M516.53,538.42l.23,0Z" transform="translate(-20.78 -39.6)"/><path d="M514.85,538.41l.24,0Z" transform="translate(-20.78 -39.6)"/><path d="M476.56,548.6c.2-.12.38-.24.55-.36C476.94,548.36,476.76,548.48,476.56,548.6Z" transform="translate(-20.78 -39.6)"/><path d="M478.24,546.87a1.12,1.12,0,0,0,.05-.13A1.12,1.12,0,0,1,478.24,546.87Z" transform="translate(-20.78 -39.6)"/><path d="M478.42,545.15v0h0Z" transform="translate(-20.78 -39.6)"/><path class="cls-2" d="M995.15,614.15a64.21,64.21,0,0,0-36.91-32.92,61.26,61.26,0,0,0-20.17-3.32,84.32,84.32,0,0,0-20.29,2.68,28,28,0,0,1-6.16.48c-1.63,0-3.44-.06-5.36-.19-4.46-.3-10.51-2.41-16.36-4.45s-11.9-4.15-15.58-6.69a56.94,56.94,0,0,1-7.72-6.15,156.11,156.11,0,0,1,4.3-19c2.22-8.26,4.51-16.79,7.63-22.49.71-1.29,1.43-2.55,2.17-3.79a81.29,81.29,0,0,0,37.43-91c-4.16-15.67-13-29.21-27.92-42.62-1.68-1.52-4.9-5.56-8.87-12.37-3-5.12-5.12-13.15-7.19-20.91S870,335.65,870,329.72c.07-7.88.85-13,1.56-15.15,6.26-19,7.24-35.19,3.07-50.86a81.35,81.35,0,0,0-78.43-60.42c-1.1-.62-2.18-1.25-3.24-1.9-5.55-3.38-11.8-9.63-17.84-15.68s-12.29-12.29-15.67-17.85c-.9-1.48-1.76-3-2.57-4.45A81.28,81.28,0,0,0,696.57,86a75.07,75.07,0,0,0-19.37-2.51c-9.82,0-20.12,1.81-31.49,5.54-2.16.71-7.27,1.48-15.15,1.54h-.18c-5.92,0-13.85-2.12-21.53-4.17s-15.79-4.21-20.91-7.21c-6.8-4-10.84-7.2-12.36-8.88-13.39-14.9-26.93-23.79-42.6-28a81.73,81.73,0,0,0-21.05-2.78h0a81.41,81.41,0,0,0-69.47,39.29q-2.56,1.59-5.31,3.09c-5.71,3.11-14.25,5.39-22.51,7.6s-16.79,4.48-23.29,4.63l-2.53,0-1.84,0a81,81,0,0,0-40-10.61h-.18a80.76,80.76,0,0,0-57.34,23.68c-11.49,11.45-18.78,25.9-22.95,45.5-.48,2.21-2.37,7-6.28,13.87-2.94,5.15-8.83,11-14.52,16.67S234.13,194.87,229,197.78c-8.63,4.88-12.82,6-13.9,6.22-19.61,4.09-34.09,11.32-45.59,22.76a81.53,81.53,0,0,0-13.11,98.09c0,1.26,0,2.53,0,3.8-.16,6.51-2.45,15-4.66,23.29s-4.51,16.78-7.63,22.49q-1.26,2.29-2.57,4.46a81.3,81.3,0,0,0-36.86,90.92c4.21,15.65,13.12,29.17,28,42.54,1.7,1.51,4.92,5.55,8.92,12.34,3,5.12,5.16,13.14,7.25,20.89s4.24,15.79,4.2,21.71c0,2.92-.13,5.45-.3,7.59a129.94,129.94,0,0,1-12.81,5c-6.36,2.22-12.94,4.51-17.9,4.84-2.1.14-4.06.21-5.85.21a31.44,31.44,0,0,1-6.92-.55,88.69,88.69,0,0,0-21.48-2.85A64.44,64.44,0,0,0,66.53,585a68.16,68.16,0,0,0,7.34,130.82l1,.88c3.29,3,6.69,8.46,10,13.71s6.68,10.68,8,15c2.23,7.44,2.28,10.71,2.27,11.29-.3,15.67,2.84,28.53,9.59,39.32a64.29,64.29,0,0,0,54.83,30.35c1.38,0,2.77,0,4.15-.13,2,.7,4,1.54,6,2.46,4.5,2.05,9.87,6.27,15.07,10.34s10.56,8.3,13.62,12.18c.76,1,1.49,1.93,2.18,2.89a64.22,64.22,0,0,0,38.08,51.24,63,63,0,0,0,25.55,5.14,90.78,90.78,0,0,0,14.73-1.28,16,16,0,0,1,2.57-.15,64,64,0,0,1,8.94.78c4.42.65,10.28,3.23,15.95,5.73s11.53,5.08,15,7.91c6,4.91,7.91,7.58,8.23,8.07,8.55,13.12,18.37,22,30,27.12a64.58,64.58,0,0,0,66.63-8.82h.08a32.09,32.09,0,0,1,3.43-.17A124.4,124.4,0,0,1,444.51,951c6.55.84,13.33,1.71,17.94,3.48,1.14.44,2.25.89,3.34,1.36A64.53,64.53,0,0,0,516.13,980a66.49,66.49,0,0,0,8.68-.58c12.61-1.7,24.51-7.5,36.37-17.73.44-.38,3-2.43,10.15-5.47,4.11-1.76,10.46-2.61,16.6-3.44a109.33,109.33,0,0,1,13.5-1.28,24.9,24.9,0,0,1,3.42.2c7.7,1,10.7,2.34,11.23,2.59,11.31,5.38,21.76,8,31.94,8a58.14,58.14,0,0,0,7.82-.52,65,65,0,0,0,51.33-39.91c1-.91,2.1-1.81,3.21-2.69,3.86-3.08,10-6,16-8.75s12.18-5.66,17-6.62c1.2-.24,2.39-.45,3.55-.63a64.69,64.69,0,0,0,62.51-11.55c9.76-8.17,16.73-19.42,21.3-34.4.17-.56,1.24-3.65,5.66-10,2.54-3.68,7.46-7.79,12.21-11.77s9.66-8.08,13.73-9.94c7.07-3.23,10.3-3.73,10.88-3.8,15.55-1.86,27.86-6.74,37.62-14.9a64.84,64.84,0,0,0,21.81-62.59c.43-2,1-4.17,1.62-6.31,1.41-4.74,4.84-10.64,8.17-16.34s6.76-11.61,10.18-15.17c.63-.65,1.27-1.3,1.92-1.93A64.94,64.94,0,0,0,998,663.54,64.18,64.18,0,0,0,995.15,614.15ZM267.73,354.57a81.17,81.17,0,0,0,16.43-12.64c11.49-11.44,18.79-25.9,23-45.49.47-2.22,2.37-7,6.28-13.87,2.93-5.15,8.82-11,14.51-16.67s11.59-11.54,16.74-14.46c8.64-4.88,12.82-6,13.9-6.22,19.61-4.08,34.1-11.32,45.59-22.76a81.4,81.4,0,0,0,13-16.83c1.13-.67,2.29-1.33,3.45-2,5.72-3.12,14.25-5.4,22.51-7.6s16.79-4.49,23.3-4.63c.87,0,1.72,0,2.56,0s1.83,0,2.74,0a81.22,81.22,0,0,0,19.4,8,75.21,75.21,0,0,0,19.38,2.52c9.82,0,20.12-1.82,31.49-5.55,2.15-.7,7.26-1.48,15.14-1.54h.08c6,0,14.32,2.21,21.64,4.16,7.76,2.07,15.79,4.22,20.9,7.21,8.56,5,11.63,8.07,12.36,8.89,13.4,14.9,26.93,23.78,42.6,28a81.6,81.6,0,0,0,21,2.78c1.22.68,2.43,1.38,3.62,2.11,4.48,2.73,9.41,7.33,14.32,12.17L261.26,369.46A63.55,63.55,0,0,1,265.77,358C266.4,356.85,267.06,355.7,267.73,354.57Zm486.76,188a80.86,80.86,0,0,0-17,13c-11.47,11.47-18.72,26-22.85,45.55-.22,1.08-1.34,5.26-6.24,13.89-2.93,5.16-8.8,11-14.48,16.71s-11.55,11.56-16.7,14.49c-6.85,3.9-11.66,5.79-13.88,6.25-19.6,4.14-34.07,11.41-45.54,22.88a81.44,81.44,0,0,0-12.9,16.81c-1.2.71-2.42,1.41-3.67,2.09-5.71,3.12-14.25,5.39-22.5,7.6s-16.8,4.48-23.3,4.63l-2.46,0h-1.5a81.35,81.35,0,0,0-19.16-7.92A75.2,75.2,0,0,0,512.63,696c-9.73,0-19.94,1.78-31.21,5.43-2.16.7-7.27,1.46-15.15,1.49h-.1c-5.91,0-13.89-2.16-21.6-4.25s-15.77-4.27-20.88-7.28c-6.79-4-10.82-7.24-12.33-8.94-13.33-14.95-26.84-23.88-42.49-28.12a81.45,81.45,0,0,0-21.05-2.84c-1.17-.65-2.32-1.32-3.44-2-4-2.42-8.28-6.31-12.63-10.54L732.46,537.78l0-.18,27.75-7a52.56,52.56,0,0,1-3.35,7.9C756.06,539.88,755.29,541.23,754.49,542.54Z" transform="translate(-20.78 -39.6)"/><rect class="cls-3" x="495.13" y="412.55" width="1.37" height="0.54"/><rect class="cls-3" x="495.13" y="412.6" width="1.37" height="0.45"/><rect class="cls-3" x="495.13" y="412.64" width="1.37" height="0.36"/><rect class="cls-3" x="495.13" y="412.69" width="1.37" height="0.27"/><polygon class="cls-3" points="496.5 412.91 495.13 412.91 495.13 412.82 496.5 412.73 496.5 412.91"/><path class="cls-3" d="M517.28,452.47h-1.37l1.37-.09Zm-1.37,0v-.09h1.37Z" transform="translate(-20.78 -39.6)"/><rect class="cls-3" x="495.13" y="412.82" width="1.37" height="0.27"/><polygon class="cls-3" points="496.5 412.9 495.13 412.9 496.5 412.82 496.5 412.9"/><rect class="cls-3" x="495.13" y="412.6" width="1.37" height="0.22"/><rect class="cls-3" x="495.13" y="412.6" width="1.37" height="0.22"/><polygon class="cls-3" points="496.5 412.9 495.13 412.9 496.5 412.82 496.5 412.9"/><path class="cls-4" d="M289.12,595.52c-3.31-12.33-10.61-23.22-23-34.29-3.58-3.2-7.8-8.87-12.23-16.39-4.17-7.1-6.63-16.25-9-25.1s-4.84-18-4.79-26.22c0-8.73.87-15.76,2.36-20.32,5.13-15.77,6-28.86,2.67-41.19a64.26,64.26,0,0,0-124.1,33.38c3.32,12.33,10.62,23.22,23,34.29,3.58,3.2,7.81,8.87,12.23,16.39,4.17,7.1,6.63,16.25,9,25.1s4.84,18,4.8,26.22c-.06,8.73-.87,15.76-2.36,20.32-5.14,15.77-6,28.86-2.67,41.19a64.25,64.25,0,1,0,124.09-33.38Z" transform="translate(-20.78 -39.6)"/><path class="cls-4" d="M392.33,119.54a63.85,63.85,0,0,0-45.39-18.92h-.14a63.8,63.8,0,0,0-45.33,18.73c-9.05,9-14.87,20.76-18.32,37-1,4.69-3.82,11.18-8.15,18.76-4.08,7.15-10.79,13.84-17.29,20.3s-13.2,13.15-20.37,17.2c-7.59,4.3-14.09,7.08-18.8,8.06-16.23,3.39-28,9.16-37,18.17a64.25,64.25,0,0,0,45.2,109.78h.14a63.85,63.85,0,0,0,45.33-18.72c9-9,14.87-20.76,18.32-37,1-4.7,3.82-11.19,8.14-18.77,4.08-7.14,10.8-13.83,17.29-20.29s13.21-13.16,20.37-17.21c7.6-4.29,14.1-7.08,18.8-8.06,16.24-3.38,28-9.15,37.06-18.16a64.27,64.27,0,0,0,.19-90.87Z" transform="translate(-20.78 -39.6)"/><path class="cls-4" d="M731.23,132.37a63.78,63.78,0,0,0-39-29.9c-12.33-3.29-25.42-2.42-41.18,2.75-4.56,1.5-11.59,2.33-20.31,2.4h-.32c-8.15,0-17.18-2.41-25.92-4.75s-18-4.8-25.11-9c-7.53-4.4-13.21-8.62-16.42-12.19-11.09-12.34-22-19.61-34.33-22.91A64.25,64.25,0,1,0,495.47,183c12.33,3.3,25.42,2.42,41.17-2.75,4.57-1.5,11.59-2.32,20.32-2.39,8.21,0,17.38,2.37,26.24,4.74s18,4.8,25.1,9c7.54,4.4,13.22,8.62,16.43,12.2,11.08,12.33,22,19.61,34.33,22.9a64.65,64.65,0,0,0,16.67,2.2,64.28,64.28,0,0,0,55.5-96.46Z" transform="translate(-20.78 -39.6)"/><path class="cls-4" d="M901.69,431.71c-3.27-12.34-10.54-23.25-22.86-34.35-3.57-3.22-7.78-8.9-12.19-16.44-4.14-7.1-6.58-16.26-8.93-25.12s-4.79-18-4.71-26.24c.07-8.72.91-15.75,2.41-20.31,5.19-15.75,6.07-28.83,2.79-41.17a64.25,64.25,0,0,0-124.19,33c3.28,12.34,10.55,23.26,22.87,34.36,3.57,3.21,7.78,8.89,12.18,16.43,4.15,7.11,6.58,16.27,8.94,25.12s4.78,18,4.71,26.24c-.08,8.73-.91,15.75-2.41,20.31-5.19,15.76-6.08,28.84-2.8,41.18a64.37,64.37,0,0,0,62,47.78,64.62,64.62,0,0,0,16.61-2.19,64.23,64.23,0,0,0,45.59-78.6Z" transform="translate(-20.78 -39.6)"/><path class="cls-4" d="M840.38,567.55a64.33,64.33,0,0,0-90.87,0c-9,9-14.82,20.79-18.23,37-1,4.7-3.79,11.2-8.1,18.79-4.06,7.16-10.76,13.86-17.23,20.34S692.77,656.92,685.62,661c-7.59,4.31-14.08,7.12-18.78,8.11-16.23,3.42-28,9.22-37,18.26a64.25,64.25,0,0,0,90.9,90.83c9-9,14.81-20.8,18.22-37,1-4.7,3.79-11.19,8.1-18.78,4.06-7.16,10.76-13.86,17.24-20.34s13.17-13.19,20.33-17.25c7.58-4.32,14.08-7.12,18.78-8.12,16.22-3.42,28-9.22,37-18.25A64.34,64.34,0,0,0,840.38,567.55Z" transform="translate(-20.78 -39.6)"/><path class="cls-4" d="M566.79,745a63.86,63.86,0,0,0-38.94-30c-12.32-3.34-25.41-2.51-41.19,2.6-4.56,1.48-11.59,2.28-20.32,2.32h-.16c-8.19,0-17.27-2.46-26.06-4.84s-18-4.87-25.07-9c-7.52-4.44-13.18-8.68-16.38-12.26-11-12.38-21.92-19.69-34.25-23a64.25,64.25,0,0,0-33.59,124c12.32,3.34,25.41,2.51,41.19-2.6,4.57-1.48,11.6-2.28,20.32-2.32h.17c8.18,0,17.27,2.46,26.05,4.84s18,4.87,25.08,9.06c7.51,4.43,13.18,8.67,16.37,12.26,11,12.37,21.92,19.69,34.25,23a64.26,64.26,0,0,0,72.53-94Z" transform="translate(-20.78 -39.6)"/><path class="cls-2" d="M389.07,690.63c-7.83-7.85-18-13.22-31.21-16.41-5.74-1.39-14.1-5.22-22.35-10.26-7.28-4.45-14.26-11.45-21-18.21s-13.71-13.75-18.15-21c-5-8.27-8.83-16.63-10.2-22.38-3.15-13.18-8.49-23.4-16.32-31.26A59.21,59.21,0,0,0,186,654.67c7.83,7.86,18,13.23,31.22,16.41,5.74,1.39,14.09,5.23,22.34,10.27,7.29,4.45,14.26,11.44,21,18.2s13.71,13.76,18.14,21.06c5,8.26,8.83,16.63,10.2,22.37,3.15,13.18,8.49,23.41,16.32,31.26a58.81,58.81,0,0,0,41.84,17.4h.09a59.2,59.2,0,0,0,41.92-101ZM347.15,785.1h-.08a52.32,52.32,0,0,1-37.21-15.48c-7-7-11.73-16.18-14.59-28.16-1.53-6.37-5.63-15.43-11-24.25-4.84-8-12.09-15.24-19.1-22.27S250.92,680.63,243,675.77c-8.8-5.38-17.85-9.51-24.22-11-12-2.89-21.16-7.69-28.11-14.67a52.66,52.66,0,0,1,74.58-74.37c7,7,11.73,16.19,14.59,28.16,1.52,6.37,5.62,15.44,11,24.25,4.84,8,12.09,15.25,19.11,22.28s14.27,14.31,22.22,19.17c8.8,5.37,17.85,9.5,24.22,11,12,2.9,21.16,7.7,28.12,14.67a52.66,52.66,0,0,1-37.29,89.85Z" transform="translate(-20.78 -39.6)"/><path class="cls-5" d="M347.15,713.65a18.8,18.8,0,1,1-13.27,5.49,18.65,18.65,0,0,1,13.27-5.49m0-6.54a25.33,25.33,0,1,0,17.93,7.44,25.27,25.27,0,0,0-17.93-7.44Z" transform="translate(-20.78 -39.6)"/><path class="cls-4" d="M384.44,695.25c-7-7-16.15-11.77-28.12-14.67-6.37-1.54-15.42-5.67-24.22-11-8-4.86-15.21-12.13-22.22-19.17s-14.27-14.31-19.11-22.28c-5.35-8.81-9.45-17.88-11-24.25-2.86-12-7.64-21.18-14.59-28.16a52.66,52.66,0,1,0-74.58,74.37c7,7,16.15,11.78,28.11,14.67,6.37,1.54,15.42,5.67,24.22,11,8,4.86,15.22,12.13,22.23,19.17s14.26,14.3,19.1,22.27c5.35,8.82,9.45,17.88,11,24.25,2.86,12,7.63,21.19,14.59,28.16a52.32,52.32,0,0,0,37.21,15.48h.08a52.66,52.66,0,0,0,37.29-89.85Z" transform="translate(-20.78 -39.6)"/><path class="cls-2" d="M347.15,713.65a18.8,18.8,0,1,1-13.27,5.49,18.65,18.65,0,0,1,13.27-5.49m0-6.54a25.33,25.33,0,1,0,17.93,7.44,25.27,25.27,0,0,0-17.93-7.44Z" transform="translate(-20.78 -39.6)"/><path class="cls-2" d="M347.15,745h0a12.53,12.53,0,0,1-12.5-12.53,2,2,0,0,1,2-2h0a2,2,0,0,1,2,2,8.6,8.6,0,0,0,8.57,8.6h0a8.61,8.61,0,0,0,8.59-8.58,2,2,0,0,1,2-2h0a2,2,0,0,1,2,2A12.52,12.52,0,0,1,347.15,745Z" transform="translate(-20.78 -39.6)"/><path class="cls-2" d="M227.92,625.39h0a12.54,12.54,0,0,1-12.5-12.54,2,2,0,0,1,2-2h0a2,2,0,0,1,2,2,8.6,8.6,0,0,0,8.57,8.6h0a8.61,8.61,0,0,0,8.59-8.58,2,2,0,0,1,2-2h0a2,2,0,0,1,2,2A12.54,12.54,0,0,1,227.92,625.39Z" transform="translate(-20.78 -39.6)"/><path class="cls-2" d="M890.88,419.21a59.2,59.2,0,0,0-108.47,14.2c-2.88,10.71-2.41,22.24,1.42,35.23,1.67,5.67,2.53,14.82,2.3,24.48-.21,8.55-2.77,18.08-5.25,27.3s-5,18.75-9.14,26.25c-4.64,8.48-10,16-14.26,20-9.84,9.33-16,19.07-18.89,29.78a59.2,59.2,0,1,0,114.35,30.73c2.88-10.71,2.41-22.24-1.42-35.23-1.67-5.67-2.53-14.82-2.3-24.49.21-8.54,2.77-18.07,5.25-27.29s5-18.76,9.14-26.25c4.64-8.48,10-16,14.26-20,9.84-9.33,16-19.07,18.89-29.78A58.78,58.78,0,0,0,890.88,419.21Zm-.43,43.23c-2.56,9.52-8.14,18.26-17.08,26.73-4.75,4.51-10.55,12.6-15.5,21.64-4.48,8.18-7.14,18.1-9.72,27.69s-5.24,19.51-5.47,28.84c-.25,10.3.71,20.21,2.56,26.49,3.49,11.8,3.94,22.17,1.38,31.68A52.66,52.66,0,0,1,744.9,598.18c2.56-9.52,8.15-18.26,17.08-26.73,4.75-4.51,10.55-12.6,15.5-21.64,4.48-8.18,7.14-18.1,9.72-27.69s5.25-19.51,5.47-28.84c.25-10.3-.71-20.21-2.56-26.49-3.49-11.81-3.94-22.17-1.38-31.68a52.66,52.66,0,1,1,101.72,27.33Z" transform="translate(-20.78 -39.6)"/><path class="cls-5" d="M839.57,430a18.79,18.79,0,1,1-18.12,13.92A18.88,18.88,0,0,1,839.57,430m0-6.54a25.34,25.34,0,1,0,6.59.87,25.34,25.34,0,0,0-6.59-.87Z" transform="translate(-20.78 -39.6)"/><path class="cls-4" d="M885.22,422.48a52.67,52.67,0,0,0-96.49,12.63c-2.56,9.51-2.11,19.87,1.38,31.68,1.85,6.28,2.81,16.19,2.56,26.49-.22,9.33-2.89,19.25-5.47,28.84s-5.24,19.51-9.72,27.69c-5,9-10.75,17.13-15.5,21.64-8.93,8.47-14.52,17.21-17.08,26.73a52.66,52.66,0,0,0,101.72,27.33c2.56-9.51,2.11-19.88-1.38-31.68-1.85-6.28-2.81-16.19-2.56-26.49.23-9.33,2.89-19.25,5.47-28.84s5.24-19.51,9.72-27.69c5-9,10.75-17.13,15.5-21.64,8.94-8.47,14.52-17.21,17.08-26.73A52.33,52.33,0,0,0,885.22,422.48Z" transform="translate(-20.78 -39.6)"/><path class="cls-2" d="M839.57,430a18.79,18.79,0,1,1-18.12,13.92A18.88,18.88,0,0,1,839.57,430m0-6.54a25.34,25.34,0,1,0,6.59.87,25.34,25.34,0,0,0-6.59-.87Z" transform="translate(-20.78 -39.6)"/><path class="cls-2" d="M844.86,459.88a2,2,0,0,1-1-3.66,8.59,8.59,0,0,0-8.58-14.89,2,2,0,0,1-2-3.4,12.52,12.52,0,1,1,12.5,21.69A2,2,0,0,1,844.86,459.88Z" transform="translate(-20.78 -39.6)"/><path class="cls-2" d="M801,623a2,2,0,0,1-1-3.66,8.6,8.6,0,0,0,3.15-11.74,8.6,8.6,0,0,0-11.73-3.15,2,2,0,0,1-2-3.4A12.52,12.52,0,1,1,802,622.69,1.92,1.92,0,0,1,801,623Z" transform="translate(-20.78 -39.6)"/><path class="cls-2" d="M795.75,593.05A18.8,18.8,0,1,1,790.89,630a18.79,18.79,0,0,1,4.86-36.94m0-6.54a25.33,25.33,0,0,0-6.56,49.79,25,25,0,0,0,6.59.88,25.34,25.34,0,0,0,0-50.67Z" transform="translate(-20.78 -39.6)"/><path class="cls-2" d="M731.7,718a59.19,59.19,0,0,0-72.47-41.93c-10.71,2.86-20.46,9-29.8,18.84-4.08,4.28-11.58,9.6-20.06,14.22-7.51,4.1-17,6.64-26.27,9.1s-18.76,5-27.3,5.2c-9.68.22-18.82-.66-24.48-2.34-13-3.85-24.51-4.34-35.23-1.48a59.23,59.23,0,0,0,15.17,116.44,59.5,59.5,0,0,0,15.37-2c10.71-2.86,20.46-9,29.8-18.84,4.07-4.28,11.57-9.6,20.06-14.23,7.5-4.09,17-6.64,26.26-9.1s18.77-5,27.31-5.2c9.68-.21,18.82.66,24.48,2.34,13,3.86,24.52,4.34,35.23,1.48A59.19,59.19,0,0,0,731.7,718Zm-75.3,64.72c-6.28-1.86-16.18-2.84-26.49-2.61-9.32.21-19.24,2.86-28.84,5.42s-19.52,5.21-27.71,9.68c-9.05,4.94-17.15,10.71-21.67,15.46-8.48,8.92-17.23,14.49-26.75,17A52.66,52.66,0,1,1,497.78,726a47.88,47.88,0,0,1,12.53-1.61,67.23,67.23,0,0,1,19.15,3c6.27,1.86,16.18,2.83,26.49,2.6,9.32-.2,19.24-2.85,28.84-5.42s19.52-5.2,27.71-9.67c9-4.94,17.15-10.72,21.67-15.46,8.48-8.92,17.23-14.49,26.75-17a52.66,52.66,0,0,1,27.16,101.76C678.56,786.72,668.2,786.25,656.4,782.75Z" transform="translate(-20.78 -39.6)"/><path class="cls-5" d="M674.52,714.51a18.8,18.8,0,1,1-4.86.64,18.8,18.8,0,0,1,4.86-.64m0-6.55A25.33,25.33,0,1,0,699,726.77,25.16,25.16,0,0,0,674.52,708Z" transform="translate(-20.78 -39.6)"/><path class="cls-4" d="M725.38,719.72a52.66,52.66,0,0,0-64.46-37.3c-9.52,2.54-18.27,8.11-26.75,17-4.52,4.74-12.62,10.52-21.67,15.46-8.19,4.47-18.11,7.11-27.71,9.67S565.27,729.8,556,730c-10.31.23-20.22-.74-26.49-2.6a67.23,67.23,0,0,0-19.15-3A47.88,47.88,0,0,0,497.78,726a52.66,52.66,0,1,0,27.16,101.76c9.52-2.54,18.27-8.11,26.75-17,4.52-4.75,12.62-10.52,21.67-15.46,8.19-4.47,18.11-7.12,27.71-9.68s19.52-5.21,28.84-5.42c10.31-.23,20.21.75,26.49,2.61,11.8,3.5,22.16,4,31.68,1.43a52.67,52.67,0,0,0,37.3-64.46Z" transform="translate(-20.78 -39.6)"/><path class="cls-2" d="M674.52,714.51a18.8,18.8,0,1,1-4.86.64,18.8,18.8,0,0,1,4.86-.64m0-6.55A25.33,25.33,0,1,0,699,726.77,25.16,25.16,0,0,0,674.52,708Z" transform="translate(-20.78 -39.6)"/><path class="cls-2" d="M674.48,745.82a12.46,12.46,0,0,1-6.25-1.69,2,2,0,0,1,2-3.4,8.59,8.59,0,1,0,8.6-14.87,2,2,0,0,1,2-3.39,12.52,12.52,0,0,1-6.29,23.35Z" transform="translate(-20.78 -39.6)"/><path class="cls-2" d="M511.34,789.37a12.4,12.4,0,0,1-6.25-1.69,2,2,0,1,1,2-3.4,8.59,8.59,0,1,0,8.61-14.87,2,2,0,1,1,2-3.4,12.53,12.53,0,0,1-6.29,23.36Z" transform="translate(-20.78 -39.6)"/><path class="cls-2" d="M511.37,758.05a18.79,18.79,0,0,1,4.83,37,19.08,19.08,0,0,1-4.86.64,18.8,18.8,0,0,1,0-37.59m0-6.54a25.33,25.33,0,1,0,24.46,18.8,25.57,25.57,0,0,0-24.46-18.8Z" transform="translate(-20.78 -39.6)"/><path class="cls-2" d="M278.08,255.1a59.21,59.21,0,0,0-108.47,14.23c-2.87,10.72-2.4,22.24,1.44,35.24,1.67,5.66,2.53,14.81,2.3,24.48-.2,8.55-2.76,18.08-5.23,27.3s-5,18.75-9.14,26.25c-4.64,8.48-10,16-14.25,20-9.83,9.33-16,19.07-18.88,29.78A59.21,59.21,0,0,0,167.69,505,59.51,59.51,0,0,0,183.13,507a59.29,59.29,0,0,0,57.08-43.89c2.88-10.71,2.41-22.23-1.43-35.23-1.67-5.67-2.54-14.82-2.31-24.48.21-8.55,2.77-18.08,5.24-27.3s5-18.76,9.13-26.25c4.65-8.49,10-16,14.26-20,9.83-9.33,16-19.07,18.88-29.79A58.8,58.8,0,0,0,278.08,255.1Zm-.42,43.23c-2.55,9.51-8.14,18.26-17.07,26.73-4.75,4.51-10.54,12.6-15.49,21.65-4.47,8.17-7.13,18.1-9.71,27.69s-5.24,19.51-5.46,28.84c-.24,10.31.72,20.21,2.58,26.49,3.48,11.81,3.94,22.17,1.38,31.69h0a52.66,52.66,0,1,1-101.72-27.3c2.55-9.52,8.13-18.26,17.06-26.74,4.75-4.5,10.54-12.59,15.49-21.64,4.48-8.19,7.14-18.1,9.72-27.7s5.23-19.51,5.45-28.83c.25-10.31-.71-20.22-2.57-26.49-3.49-11.81-3.94-22.18-1.39-31.69a52.74,52.74,0,0,1,50.78-39,53,53,0,0,1,13.74,1.83,52.67,52.67,0,0,1,37.21,64.51Z" transform="translate(-20.78 -39.6)"/><path class="cls-5" d="M183,429a18.88,18.88,0,0,1,4.89.65,18.79,18.79,0,0,1,13.27,23A18.78,18.78,0,1,1,183,429m0-6.54a25.34,25.34,0,1,0,6.59.87,25.33,25.33,0,0,0-6.59-.87Z" transform="translate(-20.78 -39.6)"/><path class="cls-4" d="M272.41,258.37a52.28,52.28,0,0,0-32-24.55A53,53,0,0,0,226.71,232a52.74,52.74,0,0,0-50.78,39c-2.55,9.51-2.1,19.88,1.39,31.69,1.86,6.27,2.82,16.18,2.57,26.49-.22,9.32-2.88,19.24-5.45,28.83s-5.24,19.51-9.72,27.7c-4.95,9.05-10.74,17.14-15.49,21.64-8.93,8.48-14.51,17.22-17.06,26.74a52.66,52.66,0,0,0,101.72,27.3h0c2.56-9.52,2.1-19.88-1.38-31.69-1.86-6.28-2.82-16.18-2.58-26.49.22-9.33,2.89-19.25,5.46-28.84s5.24-19.52,9.71-27.69c5-9,10.74-17.14,15.49-21.65,8.93-8.47,14.52-17.22,17.07-26.73A52.28,52.28,0,0,0,272.41,258.37Z" transform="translate(-20.78 -39.6)"/><path class="cls-2" d="M183,429a18.88,18.88,0,0,1,4.89.65,18.79,18.79,0,0,1,13.27,23A18.78,18.78,0,1,1,183,429m0-6.54a25.34,25.34,0,1,0,6.59.87,25.33,25.33,0,0,0-6.59-.87Z" transform="translate(-20.78 -39.6)"/><path class="cls-2" d="M183.05,460.28a12.52,12.52,0,0,1-6.27-23.36,2,2,0,0,1,2,3.41,8.59,8.59,0,0,0,8.58,14.88,2,2,0,0,1,2,3.4A12.45,12.45,0,0,1,183.05,460.28Z" transform="translate(-20.78 -39.6)"/><path class="cls-2" d="M226.82,297.2a12.61,12.61,0,0,1-3.27-.43,12.52,12.52,0,0,1-3-22.93,2,2,0,0,1,2,3.4,8.59,8.59,0,1,0,8.59,14.88,2,2,0,0,1,2,3.4A12.48,12.48,0,0,1,226.82,297.2Z" transform="translate(-20.78 -39.6)"/><path class="cls-2" d="M567.63,105.76a59.19,59.19,0,0,0-72.47-41.92c-10.72,2.86-20.47,9-29.81,18.84-4.07,4.28-11.57,9.6-20.06,14.23-7.49,4.09-17,6.64-26.26,9.1s-18.76,5-27.3,5.21c-9.69.22-18.82-.66-24.48-2.34-13-3.86-24.52-4.34-35.23-1.47a59.23,59.23,0,0,0,15.17,116.43,60,60,0,0,0,15.38-2c10.71-2.86,20.46-9,29.8-18.85,4.07-4.28,11.57-9.6,20.06-14.23,7.5-4.09,17-6.64,26.26-9.1s18.76-5,27.3-5.2c9.68-.23,18.82.65,24.48,2.33,13,3.86,24.52,4.34,35.24,1.48a59.2,59.2,0,0,0,41.92-72.48Zm-75.3,64.73c-6.27-1.86-16.18-2.83-26.48-2.6-9.33.21-19.25,2.86-28.85,5.42s-19.52,5.21-27.71,9.68c-9.05,4.94-17.14,10.72-21.66,15.46-8.48,8.92-17.23,14.49-26.75,17A52.66,52.66,0,0,1,333.7,113.73a48,48,0,0,1,12.54-1.61,67.5,67.5,0,0,1,19.15,3c6.28,1.87,16.19,2.84,26.48,2.61,9.33-.21,19.25-2.86,28.85-5.42s19.52-5.22,27.71-9.68c9.05-4.94,17.15-10.72,21.66-15.47,8.49-8.92,17.24-14.49,26.75-17A52.66,52.66,0,1,1,524,171.92C514.5,174.46,504.14,174,492.33,170.49Z" transform="translate(-20.78 -39.6)"/><path class="cls-5" d="M347.31,145.81a18.79,18.79,0,0,1,4.83,36.95,19.15,19.15,0,0,1-4.87.64,18.8,18.8,0,0,1,0-37.59m0-6.54a25.34,25.34,0,1,0,24.45,18.8,25.52,25.52,0,0,0-24.45-18.8Z" transform="translate(-20.78 -39.6)"/><path class="cls-4" d="M561.31,107.45a52.66,52.66,0,0,0-64.47-37.29c-9.51,2.54-18.26,8.11-26.75,17-4.51,4.75-12.61,10.53-21.66,15.47-8.19,4.46-18.11,7.11-27.71,9.68s-19.52,5.21-28.85,5.42c-10.29.23-20.2-.74-26.48-2.61a67.5,67.5,0,0,0-19.15-3,48,48,0,0,0-12.54,1.61,52.66,52.66,0,0,0,27.18,101.76c9.52-2.55,18.27-8.12,26.75-17,4.52-4.74,12.61-10.52,21.66-15.46,8.19-4.47,18.12-7.12,27.71-9.68s19.52-5.21,28.85-5.42c10.3-.23,20.21.74,26.48,2.6,11.81,3.5,22.17,4,31.69,1.43a52.66,52.66,0,0,0,37.29-64.47Z" transform="translate(-20.78 -39.6)"/><path class="cls-2" d="M347.31,145.81a18.79,18.79,0,0,1,4.83,36.95,19.15,19.15,0,0,1-4.87.64,18.8,18.8,0,0,1,0-37.59m0-6.54a25.34,25.34,0,1,0,24.45,18.8,25.52,25.52,0,0,0-24.45-18.8Z" transform="translate(-20.78 -39.6)"/><path class="cls-2" d="M342,175.7a2,2,0,0,1-1-.26,12.52,12.52,0,0,1,12.54-21.67,2,2,0,0,1-2,3.4,8.59,8.59,0,0,0-12.6,9.65,8.51,8.51,0,0,0,4,5.22,2,2,0,0,1-1,3.66Z" transform="translate(-20.78 -39.6)"/><path class="cls-2" d="M505.15,132.14a2,2,0,0,1-1-.27,12.51,12.51,0,0,1,12.54-21.66,2,2,0,0,1-2,3.39,8.59,8.59,0,0,0-8.6,14.88,2,2,0,0,1-1,3.66Z" transform="translate(-20.78 -39.6)"/><path class="cls-2" d="M510.45,102.25a18.81,18.81,0,1,1-4.87.64,18.8,18.8,0,0,1,4.87-.64m0-6.55a25,25,0,0,0-6.55.87,25.33,25.33,0,0,0,6.51,49.8,25.59,25.59,0,0,0,6.56-.86,25.34,25.34,0,0,0-6.52-49.81Z" transform="translate(-20.78 -39.6)"/><path class="cls-2" d="M837.71,242.54c-7.84-7.85-18.06-13.2-31.23-16.38-5.74-1.38-14.1-5.21-22.36-10.24-7.29-4.44-14.27-11.43-21-18.18s-13.73-13.74-18.17-21c-5-8.25-8.85-16.61-10.23-22.36-3.16-13.17-8.51-23.39-16.35-31.24a59.21,59.21,0,1,0-83.76,83.71c7.84,7.84,18.06,13.2,31.23,16.37,5.74,1.38,14.1,5.21,22.36,10.24,7.3,4.45,14.27,11.43,21,18.18s13.73,13.74,18.17,21c5,8.25,8.85,16.61,10.23,22.36,3.17,13.18,8.52,23.4,16.36,31.24a59.2,59.2,0,1,0,83.75-83.7Zm-79.12,79.08c-7-7-11.75-16.18-14.63-28.15-1.53-6.37-5.64-15.43-11-24.23-4.85-8-12.11-15.24-19.13-22.26s-14.28-14.29-22.25-19.15c-8.8-5.36-17.86-9.48-24.23-11-12-2.88-21.17-7.67-28.13-14.64a52.66,52.66,0,0,1,74.5-74.45c7,7,11.75,16.17,14.62,28.14,1.53,6.37,5.64,15.43,11,24.24,4.84,8,12.11,15.23,19.13,22.26s14.29,14.29,22.25,19.14c8.8,5.36,17.86,9.48,24.23,11,12,2.89,21.17,7.67,28.13,14.64a52.66,52.66,0,1,1-74.49,74.46Z" transform="translate(-20.78 -39.6)"/><path class="cls-5" d="M676.47,146.17a18.79,18.79,0,1,1-13.28,5.5,18.67,18.67,0,0,1,13.28-5.5m0-6.54a25.33,25.33,0,1,0,17.91,7.42,25.28,25.28,0,0,0-17.91-7.42Z" transform="translate(-20.78 -39.6)"/><path class="cls-4" d="M833.08,247.16c-7-7-16.16-11.75-28.13-14.64-6.37-1.53-15.43-5.65-24.23-11-8-4.85-15.23-12.12-22.25-19.14s-14.29-14.3-19.13-22.26c-5.36-8.81-9.47-17.87-11-24.24-2.87-12-7.66-21.17-14.62-28.14a52.66,52.66,0,0,0-74.5,74.45c7,7,16.17,11.76,28.13,14.64,6.37,1.53,15.43,5.65,24.23,11,8,4.86,15.23,12.12,22.25,19.15s14.28,14.28,19.13,22.26c5.36,8.8,9.47,17.86,11,24.23,2.88,12,7.66,21.18,14.63,28.15a52.66,52.66,0,1,0,74.49-74.46Z" transform="translate(-20.78 -39.6)"/><path class="cls-2" d="M676.47,146.17a18.79,18.79,0,1,1-13.28,5.5,18.67,18.67,0,0,1,13.28-5.5m0-6.54a25.33,25.33,0,1,0,17.91,7.42,25.28,25.28,0,0,0-17.91-7.42Z" transform="translate(-20.78 -39.6)"/><path class="cls-2" d="M687,166.92h0a2,2,0,0,1-2-2,8.6,8.6,0,0,0-8.59-8.6h0a8.6,8.6,0,0,0-8.59,8.59,2,2,0,0,1-2,2h0a2,2,0,0,1-2-2,12.53,12.53,0,0,1,12.52-12.51h0A12.54,12.54,0,0,1,689,165,2,2,0,0,1,687,166.92Z" transform="translate(-20.78 -39.6)"/><path class="cls-2" d="M806.39,286.35h0a2,2,0,0,1-2-2,8.6,8.6,0,0,0-8.59-8.59h0a8.59,8.59,0,0,0-8.59,8.59,2,2,0,0,1-2,2h0a2,2,0,0,1-2-2,12.53,12.53,0,0,1,12.51-12.52h0a12.54,12.54,0,0,1,12.51,12.52A2,2,0,0,1,806.39,286.35Z" transform="translate(-20.78 -39.6)"/><path class="cls-2" d="M795.83,265.6a18.79,18.79,0,1,1-13.28,5.5,18.68,18.68,0,0,1,13.28-5.5m0-6.54a25.33,25.33,0,1,0,17.92,7.42,25.24,25.24,0,0,0-17.92-7.42Z" transform="translate(-20.78 -39.6)"/><path class="cls-2" d="M226.78,265.89a18.94,18.94,0,0,1,4.89.65,18.76,18.76,0,1,1-4.89-.65m0-6.54a25.34,25.34,0,1,0,6.58.87,25.34,25.34,0,0,0-6.58-.87Z" transform="translate(-20.78 -39.6)"/><path class="cls-2" d="M227.92,594.08a18.8,18.8,0,1,1-13.27,5.49,18.67,18.67,0,0,1,13.27-5.49m0-6.54A25.33,25.33,0,1,0,245.85,595a25.27,25.27,0,0,0-17.93-7.44Z" transform="translate(-20.78 -39.6)"/><path class="cls-5" d="M134.58,641.28a17.42,17.42,0,0,1-3.38,8.3,18.9,18.9,0,0,1-7.35,5.94,19.49,19.49,0,0,1-9.33,1.9,17.66,17.66,0,0,1-8.66-2.65,15,15,0,0,1-5.77-6.49L93.3,633.83l-17,8a4.11,4.11,0,0,1-3.09.22A3.67,3.67,0,0,1,71,640a3.71,3.71,0,0,1-.17-3.06,4.17,4.17,0,0,1,2.2-2.21l46.45-21.81a4.06,4.06,0,0,1,5.42,2l8.38,17.84A15.2,15.2,0,0,1,134.58,641.28Zm-24.34,6.93a10.37,10.37,0,0,0,4.89,1.13,12.47,12.47,0,0,0,5.26-1.2,11.16,11.16,0,0,0,5.58-5.39,7.6,7.6,0,0,0,.19-6.71l-6.79-14.46-19.07,9L107.09,645A6.89,6.89,0,0,0,110.24,648.21Z" transform="translate(-20.78 -39.6)"/><path class="cls-5" d="M132.17,707.44a4.09,4.09,0,0,1-2.38-1.82L114,680.21a14.77,14.77,0,0,0-6,9.25A14.45,14.45,0,0,0,110.19,700a15.88,15.88,0,0,0,4.51,5,16.57,16.57,0,0,0,5,2.21,4.82,4.82,0,0,1,2,1.69,3.19,3.19,0,0,1,.41,2.6,3.31,3.31,0,0,1-1.5,2.08,4.21,4.21,0,0,1-3.64.26,20.11,20.11,0,0,1-7-3.36,21.41,21.41,0,0,1-5.83-6.18,24.59,24.59,0,0,1-3.93-11.81,20,20,0,0,1,2.6-11.11,23.87,23.87,0,0,1,8.45-8.6,25.91,25.91,0,0,1,12.2-4.12,21.13,21.13,0,0,1,11.11,2.2,19.91,19.91,0,0,1,10.9,17.38,21.44,21.44,0,0,1-2.54,10.58,22.18,22.18,0,0,1-7.81,8.35A3.65,3.65,0,0,1,132.17,707.44Zm-2.74-31q-4.11-1.56-9.46.47l13.22,21.29.58-.36a10.37,10.37,0,0,0,4.15-7.33,12.79,12.79,0,0,0-1.87-8.48A13.13,13.13,0,0,0,129.43,676.45Z" transform="translate(-20.78 -39.6)"/><path class="cls-5" d="M196.72,725a4,4,0,0,1-1.57,2.73L152.43,761.9a4,4,0,0,1-3,.91,3.88,3.88,0,0,1-2.76-1.55,3.79,3.79,0,0,1-.91-3,4.05,4.05,0,0,1,1.6-2.69l1.85-1.49a18,18,0,0,1-14.62-6.58,19.05,19.05,0,0,1-4.2-10,20.69,20.69,0,0,1,1.85-10.94,25.76,25.76,0,0,1,7.62-9.58,26.16,26.16,0,0,1,11-5.37,20.54,20.54,0,0,1,11.06.56A19.35,19.35,0,0,1,174.42,726a17.91,17.91,0,0,1,.1,7.87l15.59-12.48a4,4,0,0,1,3-1,3.81,3.81,0,0,1,2.7,1.53A4,4,0,0,1,196.72,725Zm-49.65,22.86a13.71,13.71,0,0,0,7.4.28A19.45,19.45,0,0,0,167,738.07a13.66,13.66,0,0,0,1.39-7.31,13.34,13.34,0,0,0-8.87-11.07,13.72,13.72,0,0,0-7.43-.26,19.48,19.48,0,0,0-12.57,10.06,13.72,13.72,0,0,0-1.36,7.29,13.34,13.34,0,0,0,8.87,11.07Z" transform="translate(-20.78 -39.6)"/><path class="cls-5" d="M220.67,774.33a4.08,4.08,0,0,1-1.29,2.95l-25.74,26.4a4,4,0,0,1-2.84,1.26,4.2,4.2,0,0,1-4.2-4,4.07,4.07,0,0,1,1.26-2.87l1.54-1.58a18.31,18.31,0,0,1-7.85-.59,17,17,0,0,1-7.35-4.27,19.2,19.2,0,0,1-5.43-9.45,20.41,20.41,0,0,1,.49-11.09A27.92,27.92,0,0,1,185.93,754a20.48,20.48,0,0,1,11-.8,19.42,19.42,0,0,1,14.11,12.23,17.26,17.26,0,0,1,1.09,7.71l1.43-1.46a4.22,4.22,0,0,1,2.86-1.36,3.78,3.78,0,0,1,2.9,1.17A4,4,0,0,1,220.67,774.33ZM186.59,790.4a13.7,13.7,0,0,0,7.38-.64,19.36,19.36,0,0,0,11.22-11.49,14.08,14.08,0,0,0,.47-7.42A12.4,12.4,0,0,0,202,764.4a12.57,12.57,0,0,0-6.5-3.49,13.8,13.8,0,0,0-7.38.63,19.58,19.58,0,0,0-11.27,11.55,13.81,13.81,0,0,0-.45,7.4,13.37,13.37,0,0,0,10.15,9.91Z" transform="translate(-20.78 -39.6)"/><path class="cls-5" d="M211.12,821.78a3.91,3.91,0,0,1-3-.9,3.81,3.81,0,0,1-1.45-2.72,4,4,0,0,1,.94-3l34.59-42.39a4.05,4.05,0,0,1,5.74-.58,3.8,3.8,0,0,1,1.45,2.72,4,4,0,0,1-.94,3L213.86,820.3A3.89,3.89,0,0,1,211.12,821.78Z" transform="translate(-20.78 -39.6)"/><path class="cls-5" d="M230.79,836.83a3.88,3.88,0,0,1-3.07-.78,3.81,3.81,0,0,1-1.59-2.64,4.06,4.06,0,0,1,.79-3l21.75-29.66a4,4,0,0,1,2.64-1.65,3.84,3.84,0,0,1,3,.73,3.89,3.89,0,0,1,1.66,2.69,4.06,4.06,0,0,1-.79,3l-21.75,29.66A4.06,4.06,0,0,1,230.79,836.83Zm24.52-44.34a3.5,3.5,0,0,1,.82-2.92l.81-1.1a3.38,3.38,0,0,1,2.63-1.65,6,6,0,0,1,3.35,1.4,5.37,5.37,0,0,1,2.24,2.76,3.51,3.51,0,0,1-.82,2.92l-.81,1.09a3.41,3.41,0,0,1-2.6,1.68,5.78,5.78,0,0,1-3.31-1.37A5.54,5.54,0,0,1,255.31,792.49Z" transform="translate(-20.78 -39.6)"/><path class="cls-5" d="M291.58,845.22l-12.05,19.72A4,4,0,0,1,277,866.8a3.89,3.89,0,0,1-3.12-.51,3.76,3.76,0,0,1-1.8-2.5,4,4,0,0,1,.52-3.06l12-19.64a12.7,12.7,0,0,0,2.21-8q-.41-3.74-4.82-6.44a12.79,12.79,0,0,0-6-1.94,11.26,11.26,0,0,0-5.78,1.14,10.09,10.09,0,0,0-4.2,3.86l-12,19.64a4,4,0,0,1-2.49,1.86,4.21,4.21,0,0,1-5-3,4.08,4.08,0,0,1,.59-3.07l19-31a4,4,0,0,1,2.49-1.87,3.77,3.77,0,0,1,3,.47,3.89,3.89,0,0,1,1.88,2.54,4,4,0,0,1-.52,3.07l-1.56,2.53a18.41,18.41,0,0,1,8.25-1.68,16.34,16.34,0,0,1,8.43,2.42Q301.16,829.57,291.58,845.22Z" transform="translate(-20.78 -39.6)"/><path class="cls-5" d="M349,854a4.1,4.1,0,0,1-.2,3.22l-15.44,34a21.07,21.07,0,0,1-7.42,9.27,17.57,17.57,0,0,1-10.06,3,27.81,27.81,0,0,1-11.21-2.65,32.35,32.35,0,0,1-6.74-4.37q-3.65-3-4.28-4.65c-1.22-1.55-1.56-2.94-1-4.18a3.83,3.83,0,0,1,.87-1.1,3.21,3.21,0,0,1,3.74-.63,6.29,6.29,0,0,1,2,1.44q5.1,5.21,8.58,6.79,6.19,2.8,10.83,1.32a11.46,11.46,0,0,0,7-6.67l1.9-4.18a14.84,14.84,0,0,1-7.81,2.71,17.87,17.87,0,0,1-9.06-1.5,20.09,20.09,0,0,1-8.53-7.13,20.75,20.75,0,0,1-3.5-10.68,27.18,27.18,0,0,1,9.86-21.74,20.8,20.8,0,0,1,10.31-4.43,19.74,19.74,0,0,1,10.86,1.66,19.43,19.43,0,0,1,10.68,12.87l1.12-2.48a4.2,4.2,0,0,1,2.23-2.25,3.75,3.75,0,0,1,3.12.11A3.94,3.94,0,0,1,349,854Zm-26.86,26.62a13.68,13.68,0,0,0,6.92-3,17.76,17.76,0,0,0,5-6.63,17.45,17.45,0,0,0,1.67-8.11,14.06,14.06,0,0,0-2.28-7.19,13.6,13.6,0,0,0-5.89-4.91,13.43,13.43,0,0,0-7.5-1.16,14,14,0,0,0-6.94,3.06,18.52,18.52,0,0,0-6.63,14.62,14,14,0,0,0,2.27,7.23,13.47,13.47,0,0,0,5.81,4.88A13.86,13.86,0,0,0,322.15,880.65Z" transform="translate(-20.78 -39.6)"/><path class="cls-5" d="M474.33,922.47a3.53,3.53,0,0,1,.28,1.87,3,3,0,0,1-1.48,2.47,4.44,4.44,0,0,1-2.84.49,5,5,0,0,1-2.61-1,10.65,10.65,0,0,1-3.54-5.16c-.79-2.27-.92-5.49-.39-9.64.36-2.81-.21-5-1.73-6.56a10.28,10.28,0,0,0-6.31-2.87l-17-2.18-2.43,19a4.21,4.21,0,0,1-1.39,2.78,3.34,3.34,0,0,1-2.75.8,4.94,4.94,0,0,1-3.18-1.61,3.61,3.61,0,0,1-1-3l6.52-50.89a3.91,3.91,0,0,1,1.54-2.72,4,4,0,0,1,3-.81l23.68,3a16.27,16.27,0,0,1,8.05,3.3A17,17,0,0,1,476,876.6a17.26,17.26,0,0,1,1.15,9.1,17.23,17.23,0,0,1-10.93,13.76,12.47,12.47,0,0,1,4.36,5.1,13.48,13.48,0,0,1,1.13,6.91,47,47,0,0,0-.08,6.63,3.66,3.66,0,0,0,1.53,2.72A4.35,4.35,0,0,1,474.33,922.47ZM463,894.17a10.92,10.92,0,0,0,3.6-3.7,13.64,13.64,0,0,0,1.92-5.62,10.1,10.1,0,0,0-1.6-7.18,7.81,7.81,0,0,0-5.67-3.6l-19-2.43-2.72,21.24,19.22,2.46A7.29,7.29,0,0,0,463,894.17Z" transform="translate(-20.78 -39.6)"/><path class="cls-5" d="M529.12,907.44a4.07,4.07,0,0,1-2.82,1L496.4,908A14.8,14.8,0,0,0,501,918a14.48,14.48,0,0,0,10,3.9,15.79,15.79,0,0,0,6.65-1.09,16.74,16.74,0,0,0,4.55-3,4.78,4.78,0,0,1,2.47-.73,3.24,3.24,0,0,1,2.41,1.06,3.36,3.36,0,0,1,.94,2.4,4.23,4.23,0,0,1-1.75,3.2,20,20,0,0,1-6.61,4,21.57,21.57,0,0,1-8.36,1.57,24.58,24.58,0,0,1-12.05-3.09,20.09,20.09,0,0,1-7.94-8.2,23.93,23.93,0,0,1-2.66-11.76,25.83,25.83,0,0,1,3.14-12.49,21.21,21.21,0,0,1,7.86-8.15,19.95,19.95,0,0,1,20.52.24,21.32,21.32,0,0,1,7.51,7.86,22,22,0,0,1,2.8,11.09A3.59,3.59,0,0,1,529.12,907.44ZM501.57,893q-3.52,2.63-4.72,8.21l25.06.41v-.68a10.39,10.39,0,0,0-3.91-7.46,12.82,12.82,0,0,0-8.15-3A13.18,13.18,0,0,0,501.57,893Z" transform="translate(-20.78 -39.6)"/><path class="cls-5" d="M551.91,925.53a3.92,3.92,0,0,1-2.78,1.42,3.78,3.78,0,0,1-2.93-1,4,4,0,0,1-1.38-2.79l-4.36-54.54a4.06,4.06,0,0,1,3.74-4.39,3.79,3.79,0,0,1,2.93,1A4,4,0,0,1,548.5,868l4.37,54.54A3.92,3.92,0,0,1,551.91,925.53Z" transform="translate(-20.78 -39.6)"/><path class="cls-5" d="M563.55,873.8a3.52,3.52,0,0,1-1.43-2.68l-.18-1.35a3.36,3.36,0,0,1,.76-3,5.87,5.87,0,0,1,3.38-1.31,5.36,5.36,0,0,1,3.53.43,3.54,3.54,0,0,1,1.43,2.69l.18,1.34a3.44,3.44,0,0,1-.72,3,5.74,5.74,0,0,1-3.34,1.3A5.44,5.44,0,0,1,563.55,873.8Zm13,49a3.87,3.87,0,0,1-2.75,1.56,3.81,3.81,0,0,1-3-.8,4,4,0,0,1-1.51-2.72l-4.83-36.46a4,4,0,0,1,.76-3,3.8,3.8,0,0,1,2.66-1.55,3.93,3.93,0,0,1,3.07.79,4,4,0,0,1,1.51,2.72l4.83,36.46A4,4,0,0,1,576.54,922.77Z" transform="translate(-20.78 -39.6)"/><path class="cls-5" d="M627.3,892.49a4,4,0,0,1-2.51,1.64l-29.22,6.36a14.83,14.83,0,0,0,6.72,8.71,14.45,14.45,0,0,0,10.63,1.51,15.84,15.84,0,0,0,6.22-2.57,16.31,16.31,0,0,0,3.75-3.95,4.82,4.82,0,0,1,2.25-1.27,3.25,3.25,0,0,1,2.58.48,3.33,3.33,0,0,1,1.46,2.12,4.16,4.16,0,0,1-1,3.51,19.87,19.87,0,0,1-5.51,5.46,21.33,21.33,0,0,1-7.77,3.43,24.49,24.49,0,0,1-12.45-.25,20.13,20.13,0,0,1-9.6-6.16,24,24,0,0,1-5.27-10.86,25.77,25.77,0,0,1,.2-12.86,21.17,21.17,0,0,1,5.79-9.74,19.91,19.91,0,0,1,20-4.45,21.43,21.43,0,0,1,9.12,5.93A22.13,22.13,0,0,1,628,889.69,3.61,3.61,0,0,1,627.3,892.49Zm-30.12-7.79q-2.83,3.36-2.72,9.07L619,888.44l-.15-.66a10.36,10.36,0,0,0-5.51-6.36,12.78,12.78,0,0,0-8.63-1.08A13.13,13.13,0,0,0,597.18,884.7Z" transform="translate(-20.78 -39.6)"/><path class="cls-5" d="M645.53,852.73a6.55,6.55,0,0,0,0,4.37l1.83,5.65,8-2.59a3.79,3.79,0,0,1,3,.16,3.63,3.63,0,0,1,1.84,2.22,3.53,3.53,0,0,1-.2,2.84,3.87,3.87,0,0,1-2.31,1.82l-8,2.59,9.94,30.71a4,4,0,0,1-.2,3.1,3.91,3.91,0,0,1-2.43,2,3.78,3.78,0,0,1-3.07-.25,4,4,0,0,1-2-2.4L642,872.27l-5,1.62a3.79,3.79,0,0,1-2.89-.13,3.4,3.4,0,0,1-1.87-2.16,3.58,3.58,0,0,1,.23-2.89,3.78,3.78,0,0,1,2.26-1.85l5-1.62-1.83-5.66a12.27,12.27,0,0,1,.72-10.19q2.55-4.53,9.18-6.67a11.5,11.5,0,0,1,5.17-.56,3.41,3.41,0,0,1,3.09,2.35,3.8,3.8,0,0,1-.11,2.84,3,3,0,0,1-1.89,1.73,13.29,13.29,0,0,1-1.89.26,12.56,12.56,0,0,0-3.23.51A4.85,4.85,0,0,0,645.53,852.73Z" transform="translate(-20.78 -39.6)"/><path class="cls-5" d="M752.6,795.25a17.55,17.55,0,0,1,8.69,2.18,19,19,0,0,1,6.91,6.44,19.51,19.51,0,0,1,3.19,9,17.6,17.6,0,0,1-1.4,8.94,15,15,0,0,1-5.61,6.62L751,837.17l10.29,15.7a4.07,4.07,0,0,1,.67,3,4,4,0,0,1-4.71,3.14,4.15,4.15,0,0,1-2.49-1.87l-28.13-42.92a4.06,4.06,0,0,1,1.17-5.64l16.49-10.81A15.32,15.32,0,0,1,752.6,795.25Zm10.28,23.13a10.43,10.43,0,0,0,.43-5,12.51,12.51,0,0,0-1.93-5,11.1,11.1,0,0,0-6.13-4.77,7.55,7.55,0,0,0-6.66.76l-13.36,8.75,11.55,17.63L760.14,822A6.9,6.9,0,0,0,762.88,818.38Z" transform="translate(-20.78 -39.6)"/><path class="cls-5" d="M795.46,777.76a3.39,3.39,0,0,1,3,1.19,4.19,4.19,0,0,1,1.13,3.07,3.51,3.51,0,0,1-1.34,2.46,8,8,0,0,1-2.1,1,9.8,9.8,0,0,0-2.55,1.31,8.6,8.6,0,0,0-2.83,4.66,13.31,13.31,0,0,0,0,6.46,15.78,15.78,0,0,0,3.26,6.5L807,820.34a4,4,0,0,1-.59,5.74,3.81,3.81,0,0,1-3,.93,4,4,0,0,1-2.71-1.58l-23-28.2a4,4,0,0,1-.93-3,3.76,3.76,0,0,1,1.45-2.72,3.92,3.92,0,0,1,3-.93,4,4,0,0,1,2.71,1.52l2.74,3.36a16.07,16.07,0,0,1,.08-8.78,15.09,15.09,0,0,1,4.9-7.44A6.37,6.37,0,0,1,795.46,777.76Z" transform="translate(-20.78 -39.6)"/><path class="cls-5" d="M854.08,768.49a21.51,21.51,0,0,1,0,11.56A23.11,23.11,0,0,1,838,796a21.55,21.55,0,0,1-11.57-.13A23.8,23.8,0,0,1,816,789.56a24.33,24.33,0,0,1-6.33-10.6,21.44,21.44,0,0,1-.1-11.62,23.14,23.14,0,0,1,16.09-16,21.49,21.49,0,0,1,11.63.2,24.27,24.27,0,0,1,10.55,6.4A23.74,23.74,0,0,1,854.08,768.49ZM835,759.17a14.17,14.17,0,0,0-7.62-.33A14.21,14.21,0,0,0,817,769.08a14.19,14.19,0,0,0,.27,7.63,17.31,17.31,0,0,0,4.42,7.16,16.84,16.84,0,0,0,7,4.38,14.28,14.28,0,0,0,7.6.3,14.21,14.21,0,0,0,10.31-10.24,14.26,14.26,0,0,0-.24-7.6,16.87,16.87,0,0,0-4.33-7.07A17.24,17.24,0,0,0,835,759.17Z" transform="translate(-20.78 -39.6)"/><path class="cls-5" d="M834.93,727.67a3.51,3.51,0,0,1-2.86-1l-1-.88a3.36,3.36,0,0,1-1.47-2.74,5.93,5.93,0,0,1,1.62-3.24,5.4,5.4,0,0,1,2.9-2.06,3.56,3.56,0,0,1,2.87,1l1,.87a3.44,3.44,0,0,1,1.5,2.71,5.7,5.7,0,0,1-1.59,3.21A5.5,5.5,0,0,1,834.93,727.67Zm45.92,49.6a3.69,3.69,0,0,1-2.7-.89l-.59-.49q-2.14-1.82-.54-5,2.33-5.14-3-9.63l-31-26.12a4.05,4.05,0,0,1-1.47-2.74,3.91,3.91,0,0,1,1-3A3.85,3.85,0,0,1,845.3,728a4,4,0,0,1,2.94,1l32.55,27.43a15.87,15.87,0,0,1,4.73,6.38,13.13,13.13,0,0,1,.75,7,12.83,12.83,0,0,1-2.85,6.15A3.58,3.58,0,0,1,880.85,777.27Z" transform="translate(-20.78 -39.6)"/><path class="cls-5" d="M895.36,697.46a4.1,4.1,0,0,1-.75,2.91l-17.25,24.42a14.74,14.74,0,0,0,10.83,1.88,14.43,14.43,0,0,0,8.87-6.06,15.82,15.82,0,0,0,2.85-6.1,16.59,16.59,0,0,0,.1-5.44,4.69,4.69,0,0,1,.8-2.45,3.2,3.2,0,0,1,2.23-1.39,3.32,3.32,0,0,1,2.5.57,4.2,4.2,0,0,1,1.66,3.25,20,20,0,0,1-.38,7.75,21.54,21.54,0,0,1-3.41,7.78,24.78,24.78,0,0,1-9.35,8.22,20.1,20.1,0,0,1-11.25,1.93,23.86,23.86,0,0,1-11.21-4.44,25.81,25.81,0,0,1-8.55-9.63,21.24,21.24,0,0,1-2.3-11.09,19.9,19.9,0,0,1,11.77-16.8A21.25,21.25,0,0,1,883.25,691,22.09,22.09,0,0,1,894,694.93,3.62,3.62,0,0,1,895.36,697.46Zm-27.48,14.6q.18,4.4,4.12,8.53l14.46-20.47-.55-.39a10.41,10.41,0,0,0-8.37-1,12.81,12.81,0,0,0-7.09,5A13.18,13.18,0,0,0,867.88,712.06Z" transform="translate(-20.78 -39.6)"/><path class="cls-5" d="M898.57,647.38q4-2.88,6.91-1.27a4,4,0,0,1,1.82,2.07,2.92,2.92,0,0,1-.15,2.64,3.63,3.63,0,0,1-1.14,1.36,20.06,20.06,0,0,1-1.81,1,9.13,9.13,0,0,0-1.82.83,11.33,11.33,0,0,0-2.14,2.12,19,19,0,0,0-1.94,2.81,14.81,14.81,0,0,0-2,7.83,13.89,13.89,0,0,0,2.39,7.34,17.05,17.05,0,0,0,6.12,5.52,17.58,17.58,0,0,0,8,2.31,13.85,13.85,0,0,0,7.39-1.78,14.22,14.22,0,0,0,5.45-5.63,16,16,0,0,0,2.26-6.9,19.35,19.35,0,0,0-.18-2,10.16,10.16,0,0,1-.18-1.8,3.28,3.28,0,0,1,.47-1.54,3.41,3.41,0,0,1,2.22-1.82,3.89,3.89,0,0,1,2.89.48c1,.57,1.71,1.8,2,3.67a18.23,18.23,0,0,1-.42,6.66,28.83,28.83,0,0,1-3,7.63,21.38,21.38,0,0,1-8.14,8.51,20.25,20.25,0,0,1-11,2.62,26,26,0,0,1-11.67-3.4,25,25,0,0,1-9-8.19,20.9,20.9,0,0,1-3.5-10.87,21.86,21.86,0,0,1,2.91-11.49A26,26,0,0,1,898.57,647.38Z" transform="translate(-20.78 -39.6)"/><path class="cls-5" d="M916.13,625.45l23.19,10.17q3.88,1.7,5.42-1.8a6,6,0,0,0,.38-1.6,6.21,6.21,0,0,1,.37-1.6,2.37,2.37,0,0,1,1.61-1.33,3.56,3.56,0,0,1,4.47,3.35,8.43,8.43,0,0,1-.68,4.71,21.27,21.27,0,0,1-2.6,4.47,7.59,7.59,0,0,1-4.44,2.6c-2,.47-4.45,0-7.46-1.28l-23.5-10.3-2,4.51a3.6,3.6,0,0,1-2,2,3.66,3.66,0,0,1-2.88-.1,3.49,3.49,0,0,1-2-2,3.71,3.71,0,0,1,.14-2.86l2-4.51L899.59,627a4,4,0,0,1-2.19-2.21,3.88,3.88,0,0,1,.09-3.16,3.78,3.78,0,0,1,2.23-2.13,4,4,0,0,1,3.11.11l6.53,2.86,2.83-6.45a3.64,3.64,0,0,1,4.93-1.93,3.47,3.47,0,0,1,2,2A3.71,3.71,0,0,1,919,619Z" transform="translate(-20.78 -39.6)"/><path class="cls-1" d="M303.9,483.51l4-1c4.2-1.06,17-4.28,22.17-10.06,1.32-1.49,5.37-6,1.44-21.58a46.32,46.32,0,0,0-1.62-5.22l-36.14-2.31Z" transform="translate(-20.78 -39.6)"/><path class="cls-1" d="M506.64,422.48c10.38-2.61,17.35-5.84,20.72-9.58,1.21-1.35,4.42-4.92,1.45-16.73-2.62-10.4-5.39-10.81-11.94-10.81-5.19,0-12,1.09-20.92,3.33l-.52.13,8.65,34.31Z" transform="translate(-20.78 -39.6)"/><path class="cls-1" d="M450,537.76l5.95-2.23L422,401.09l-6.3.86a20.22,20.22,0,0,1-2.68.18,19.61,19.61,0,0,1-19-14.83l-4.79-19a19.66,19.66,0,0,1,.05-9.73,90.93,90.93,0,0,0-18.56,20.75c16.26,10.52,27.83,27.86,33.72,51.26,7.63,30.27,3.86,55.82-11.21,75.93-13.45,17.94-34.82,30.4-65.34,38.09l-8.11,2,5.24,20.78,28.83-5.57a20,20,0,0,1,3.75-.36,19.63,19.63,0,0,1,19,14.83L381.35,595a19.4,19.4,0,0,1,.43,2.33c21.73-10.06,40.42-26,55.45-40.66A19.63,19.63,0,0,1,450,537.76Z" transform="translate(-20.78 -39.6)"/><path class="cls-1" d="M720.28,378.58c4.21-1.06,17-4.29,22.17-10.07,1.33-1.49,5.37-6,1.45-21.58-1.6-6.33-3.79-10.79-6.33-12.9-1.21-1-3.45-2.33-9.05-2.33a68,68,0,0,0-16,2.42l-7.23,1.82,11,43.65Z" transform="translate(-20.78 -39.6)"/><path class="cls-1" d="M564,568.64a19.49,19.49,0,0,1-7.17-1.37,19.54,19.54,0,0,1-10.2,6.36l-4.94,1.25a278.09,278.09,0,0,0,39.5-9.61c1.33-.43,2.63-.88,3.92-1.34L568.77,568A19.44,19.44,0,0,1,564,568.64Z" transform="translate(-20.78 -39.6)"/><path class="cls-1" d="M526.14,484.84l-.25-.34-.19,0L519.92,486l7.89,31.29,6.88-.85a19.77,19.77,0,0,1,2.42-.15,19.46,19.46,0,0,1,7.41,1.46,19.59,19.59,0,0,1,3.21-3L526.23,485Z" transform="translate(-20.78 -39.6)"/><path class="cls-1" d="M435.09,333.82q-9.16,3.29-17.2,7.05l79-19.9a128.87,128.87,0,0,1,31.3-4.23,94.71,94.71,0,0,1,9.95.53l.3-1.64C489,318,455.35,326.55,435.09,333.82Z" transform="translate(-20.78 -39.6)"/><path class="cls-1" d="M580.77,337c9.9,9.91,17,23.09,21.05,39.24,6.61,26.23,2,49.61-13.31,68.8,3.07,3.64,5.94,7.63,9,11.81l25.1,35.11,14.73-1.24c.56-.05,1.11-.08,1.67-.08a19.59,19.59,0,0,1,10.57,3.11,19.55,19.55,0,0,1,10.27-8.85l1.2-.45c.46-2.81.83-5.67,1.1-8.62a21.31,21.31,0,0,1,.84-4.32L631.87,348.21l-6.3.86a20.22,20.22,0,0,1-2.68.18,19.63,19.63,0,0,1-19-14.83L600,319C593.05,324.91,586.63,331,580.77,337Z" transform="translate(-20.78 -39.6)"/><path class="cls-2" d="M509,432c12.47-3.15,20.85-7.25,25.62-12.54,3.4-3.78,7.48-10.55,3.67-25.69s-10.78-18.22-21.46-18.22c-6,0-13.63,1.18-23.31,3.62l-10,2.53L497,435ZM496,388.69c8.89-2.24,15.73-3.33,20.92-3.33,6.55,0,9.32.41,11.94,10.81,3,11.81-.24,15.38-1.45,16.73-3.37,3.74-10.34,7-20.72,9.58l-2.56.65-8.65-34.31Z" transform="translate(-20.78 -39.6)"/><path class="cls-2" d="M511.44,441.51c24.8-6.25,44.42-18.33,36.4-50.14-4.67-18.52-14.74-25.64-31-25.64-7.3,0-15.85,1.44-25.71,3.92l-19.56,4.93L489.84,447Zm-17.88-62.34c9.68-2.44,17.3-3.62,23.31-3.62,10.68,0,17.61,3,21.46,18.22s-.27,21.91-3.67,25.69c-4.77,5.29-13.15,9.39-25.62,12.54L497,435,483.52,381.7Z" transform="translate(-20.78 -39.6)"/><path class="cls-2" d="M722.68,388.09c13.77-3.47,22.13-7.49,27.09-13,2.19-2.45,8.84-9.89,3.65-30.52-4.74-18.79-13.38-22.64-24.89-22.64a77,77,0,0,0-18.43,2.71l-16.75,4.22,15.79,62.68Zm-10.19-54a68,68,0,0,1,16-2.42c5.6,0,7.84,1.33,9.05,2.33,2.54,2.11,4.73,6.57,6.33,12.9,3.92,15.57-.12,20.09-1.45,21.58-5.17,5.78-18,9-22.17,10.07l-4,1-11-43.65Z" transform="translate(-20.78 -39.6)"/><path class="cls-2" d="M725.08,397.61c25.39-6.4,47.34-17.83,37.85-55.47-5.5-21.83-17.25-30.07-34.41-30.07a86.27,86.27,0,0,0-20.82,3l-26.27,6.62L702,403.42Zm-15-73a77,77,0,0,1,18.43-2.71c11.51,0,20.15,3.85,24.89,22.64,5.19,20.63-1.46,28.07-3.65,30.52-5,5.55-13.32,9.57-27.09,13l-13.54,3.41-15.79-62.68Z" transform="translate(-20.78 -39.6)"/><path class="cls-6" d="M646.59,263.27C618.7,249.08,593.43,225,573.5,193.5a6.19,6.19,0,0,0-11.41,3,139.69,139.69,0,0,0,2.5,32.24c-42.7,0-82,4-116.87,11.85a351.1,351.1,0,0,0-41.76,12C338.6,276.78,295.11,319,278.1,376.1l16.54-4.17a135.44,135.44,0,0,1,32.74-4.42,85.4,85.4,0,0,1,29.24,4.84C371.05,349,395.31,331.41,429.79,319c24.41-8.76,66.29-19.07,129-19.69a176.7,176.7,0,0,0-5.3,21.08q-.69,3.57-1.26,7.29a6,6,0,0,0,.21,2.8,6.21,6.21,0,0,0,3.17,3.71,6.3,6.3,0,0,0,2.73.63,6.23,6.23,0,0,0,2.55-.56,6.39,6.39,0,0,0,2-1.37q2.67-2.83,5.51-5.75c19.58-20,45.33-42.44,77.27-52.49l.07,0a6.19,6.19,0,0,0,.88-11.4Z" transform="translate(-20.78 -39.6)"/><path class="cls-7" d="M385.44,435.4c-4-15.71-11.24-29.43-23.39-38.18a50.12,50.12,0,0,0-6.8-4.11,51.64,51.64,0,0,0-7.34-3,66.6,66.6,0,0,0-20.53-3A115,115,0,0,0,299.44,391l-26.39,6.66-8.28,2.08-8.26,2.08-50.75,12.79,4.78,19,18.9-2.59c.69-.07,1.29-.11,1.81-.11,2.69,0,3.41,1.1,4.33,4.77l39.79,157.88c1.1,4.38.74,5.4-3.2,7l-17.87,6.67L259,625.86l103.31-26-4.71-18.68-42.32,8.18a13.61,13.61,0,0,1-2.4.28c-2.31,0-2.82-1.29-3.74-4.94L296,532.43l27.14-6.84C372.45,513.16,398.16,485.89,385.44,435.4Zm-95.78,71.94L273.17,441.9,271,433.12l-1.89-7.5,3.33-.84L295.33,419a86.8,86.8,0,0,1,20.83-3c10.08,0,18.3,2.85,24.48,9.63a35.79,35.79,0,0,1,5,7.17,51.67,51.67,0,0,1,3.33,7.8c.59,1.72,1.12,3.54,1.61,5.46,9.48,37.65-12.46,49.08-37.85,55.48Z" transform="translate(-20.78 -39.6)"/><path class="cls-2" d="M350.57,446.05c-.49-1.92-1-3.74-1.61-5.46a51.67,51.67,0,0,0-3.33-7.8,35.79,35.79,0,0,0-5-7.17c-6.18-6.78-14.4-9.63-24.48-9.63a86.8,86.8,0,0,0-20.83,3l-22.93,5.78-3.33.84,1.89,7.5,2.21,8.78,16.49,65.44,23.06-5.81C338.11,495.13,360.05,483.7,350.57,446.05Zm-20.48,26.38c-5.17,5.78-18,9-22.17,10.06l-4,1-10.13-40.19-.87-3.46,7.23-1.83q4.29-1.06,8-1.67a51,51,0,0,1,8.07-.74c4.64,0,7,.91,8.32,1.79a6.75,6.75,0,0,1,.72.53c1.77,1.47,3.37,4.1,4.71,7.69a46.32,46.32,0,0,1,1.62,5.22C335.46,466.42,331.41,470.94,330.09,472.43Z" transform="translate(-20.78 -39.6)"/><path class="cls-8" d="M676.17,541a19.69,19.69,0,0,1-14.87-2.19c-.17-.1-.34-.23-.51-.34A19.51,19.51,0,0,1,648.44,548l-5.67,1.43q-21.63,19.29-56.71,30.8c-23.36,7.69-62.43,16.36-119.87,16.36-3.15,0-6.37,0-9.63-.08.29-.81.56-1.64.84-2.47,1-3,2-6.19,2.83-9.45s1.66-6.56,2.39-10q.66-3.07,1.25-6.26a6.16,6.16,0,0,0-5.81-7.29l-.27,0a6.21,6.21,0,0,0-4.39,1.82c-1.3,1.31-2.64,2.63-4,4-2.61,2.56-5.34,5.17-8.16,7.79-19.16,17.74-43.3,36-72.13,44.27l-.07,0a6.19,6.19,0,0,0-1.17,11.37c27.5,14.93,52.13,39.71,71.22,71.67a6.19,6.19,0,0,0,5.31,3,6.28,6.28,0,0,0,1.43-.17,6.18,6.18,0,0,0,4.75-5.57,139.5,139.5,0,0,0-1.66-32.3q8.63.23,17.05.22c36.16,0,69.74-3,100.1-9a354.29,354.29,0,0,0,42.06-10.89C677,624.54,721.86,582.66,739.92,524.91Z" transform="translate(-20.78 -39.6)"/><path class="cls-7" d="M643,526.41l-4.07-16.16-18.54,1.57a29.14,29.14,0,0,1-3.4.26c-2.67,0-4.69-.75-6.75-3.6l-28.76-40.24c-9.08-12.61-13.76-18.88-23.91-21,20.78-14.86,32.93-35.61,25.21-66.26-3-12-8.45-23.38-17.43-31.62a21.78,21.78,0,0,1-7,1.17,22.08,22.08,0,0,1-9.64-2.23,21.83,21.83,0,0,1-10.6-11.28,71,71,0,0,0-9.93-.68,108.78,108.78,0,0,0-26.5,3.63L408.3,363.53l4.78,19,18.9-2.59c.69-.07,1.28-.11,1.8-.11,2.7,0,3.41,1.1,4.34,4.77l39.79,157.88c1.1,4.38.74,5.4-3.2,7l-2.75,1a21.73,21.73,0,0,1,7.47,19.82L541.8,554.6l-4.71-18.68-19.26,2.37a20.91,20.91,0,0,1-2.22.17c-2.51,0-3-1.07-3.93-4.83l-15.59-61.87,24.81-6.25a27.81,27.81,0,0,1,6.75-.95c6,0,10.18,2.84,14.51,8.94l35.78,49.64-18.6,7.48L564,549l76.2-19.21,3.47-.87Zm-131.57-84.9L489.84,447,471.6,374.58l19.56-4.93c9.86-2.48,18.41-3.92,25.71-3.92,16.23,0,26.3,7.12,31,25.64C555.86,423.18,536.24,435.26,511.44,441.51Z" transform="translate(-20.78 -39.6)"/><path class="cls-7" d="M797.8,331.49c-6.82-27.1-23.48-48.27-58.06-48.27a114.93,114.93,0,0,0-27.93,3.83l-93.68,23.61,4.78,19,18.9-2.59a18,18,0,0,1,1.8-.11c2.7,0,3.41,1.11,4.34,4.77l31.42,124.68,1.92,7.62,1.92,7.65,4.53,17.94c1.1,4.38.73,5.4-3.2,7l-11.14,4.16-6.73,2.52,2.43,9.66,2.27,9,73.9-18.62,8.36-2.1,8.29-2.09,12.76-3.22L770,477.23l-6.7,1.3L755.57,480l-7.74,1.49-20.17,3.9a13.82,13.82,0,0,1-2.4.28c-2.31,0-2.83-1.28-3.75-4.93L720,474.82l-2-8.06-2-8.07-7.6-30.17,27.14-6.84C784.81,409.25,810.53,382,797.8,331.49ZM702,403.42l-20.59-81.71,26.27-6.62a86.27,86.27,0,0,1,20.82-3c17.16,0,28.91,8.24,34.41,30.07,9.49,37.64-12.46,49.07-37.85,55.47Z" transform="translate(-20.78 -39.6)"/><path class="cls-2" d="M816.84,326.69c-10.26-40.69-37.64-63.1-77.1-63.1A134.84,134.84,0,0,0,707,268l-43.92,11.06a22.09,22.09,0,0,0,2.51-8.48,21.83,21.83,0,0,0-11.89-21.32c-25.38-12.92-48.53-35.11-67-64.18a21.78,21.78,0,0,0-18.49-10.18,22.15,22.15,0,0,0-5.61.73A21.78,21.78,0,0,0,546.4,195.8a143.84,143.84,0,0,0,.31,17.52c-37,1-71.39,5-102.43,12a369.14,369.14,0,0,0-43.63,12.54c-44.34,15.91-79.37,39.45-104.1,70a184.93,184.93,0,0,0-36,72.69l-59.62,15a19.61,19.61,0,0,0-14.24,23.83l4.78,19a19.64,19.64,0,0,0,19,14.83,20.33,20.33,0,0,0,2.68-.18l6.29-.87,33.88,134.45-5.95,2.23A19.61,19.61,0,0,0,235.27,612l4.7,18.68a19.61,19.61,0,0,0,23.83,14.23L349,623.43A21.8,21.8,0,0,0,360.37,644c25,13.59,47.59,36.38,65.24,65.93A21.91,21.91,0,0,0,449.46,720a21.78,21.78,0,0,0,16.78-19.71,145.42,145.42,0,0,0,.15-17.52c37,0,71.54-3.14,102.71-9.28A367.7,367.7,0,0,0,613,662.13c44.75-14.74,80.38-37.35,105.92-67.22a185.14,185.14,0,0,0,38.55-74.43l22-5.54a19.63,19.63,0,0,0,14.24-23.83L789,472.44a19.64,19.64,0,0,0-19-14.84,20,20,0,0,0-3.74.36l-19.42,3.76-9.41,1.82-.75-3-4.49-17.81,8.11-2c30.52-7.69,51.89-20.15,65.33-38.09C820.69,382.51,824.47,357,816.84,326.69ZM406,252.62a351.1,351.1,0,0,1,41.76-12c34.89-7.82,74.17-11.8,116.87-11.85a139.69,139.69,0,0,1-2.5-32.24,6.19,6.19,0,0,1,11.41-3c19.93,31.45,45.2,55.58,73.09,69.77a6.19,6.19,0,0,1-.88,11.4l-.07,0c-31.94,10.05-57.69,32.47-77.27,52.49q-2.83,2.91-5.51,5.75a6.39,6.39,0,0,1-2,1.37,6.23,6.23,0,0,1-2.55.56,6.3,6.3,0,0,1-2.73-.63,6.21,6.21,0,0,1-3.17-3.71,6,6,0,0,1-.21-2.8q.57-3.72,1.26-7.29a176.7,176.7,0,0,1,5.3-21.08c-62.73.62-104.61,10.93-129,19.69-34.48,12.37-58.74,30-73.17,53.31a85.4,85.4,0,0,0-29.24-4.84,135.44,135.44,0,0,0-32.74,4.42L278.1,376.1C295.11,319,338.6,276.78,406,252.62ZM649.53,493.73h0l-.09-.05a20.84,20.84,0,0,0-1.9-1.06l-.49-.23c-.25-.12-.5-.22-.76-.32l-.64-.25-.72-.25-.74-.22-.69-.18-.84-.18-.64-.12c-.32-.05-.66-.09-1-.12l-.52-.06c-.52,0-1-.07-1.55-.07s-1.11,0-1.67.08l-14.73,1.24-25.1-35.11c-3-4.18-5.88-8.17-9-11.81,15.31-19.19,19.92-42.57,13.31-68.8-4.07-16.15-11.15-29.33-21.05-39.24,5.86-6,12.28-12.07,19.23-17.94l3.87,15.38a19.63,19.63,0,0,0,19,14.83,20.22,20.22,0,0,0,2.68-.18l6.3-.86,31.07,123.28,2.81,11.17L661,484.43l-1.2.45a19.55,19.55,0,0,0-10.27,8.85Zm-102.94,79.9a19.54,19.54,0,0,0,10.2-6.36c.11.05.24.08.35.12.33.12.65.24,1,.34l.67.2,1,.25.65.14c.39.07.77.12,1.16.17l.57.07c.58.05,1.16.08,1.75.08a19.44,19.44,0,0,0,4.81-.6l16.3-4.11c-1.29.46-2.59.91-3.92,1.34a278.09,278.09,0,0,1-39.5,9.61Zm-2.07-55.88a19.46,19.46,0,0,0-7.41-1.46,19.77,19.77,0,0,0-2.42.15l-6.88.85L519.92,486l5.78-1.46.19,0,.25.34.09.14,21.5,29.82-.12.1a16.43,16.43,0,0,0-1.37,1.13l-.35.31c-.47.44-.92.9-1.34,1.38ZM564,549l-4.64-18.39,18.6-7.48L542.16,473.5c-4.33-6.1-8.52-8.94-14.51-8.94a27.81,27.81,0,0,0-6.75.95l-24.81,6.25,15.59,61.87c.95,3.76,1.42,4.83,3.93,4.83a20.91,20.91,0,0,0,2.22-.17l19.26-2.37,4.71,18.68-62.37,15.71A21.73,21.73,0,0,0,472,550.49l2.75-1c3.94-1.62,4.3-2.64,3.2-7L438.12,384.57c-.93-3.67-1.64-4.77-4.34-4.77-.52,0-1.11,0-1.8.11l-18.9,2.59-4.78-19L501.69,340a108.78,108.78,0,0,1,26.5-3.63,71,71,0,0,1,9.93.68,21.83,21.83,0,0,0,10.6,11.28,22.08,22.08,0,0,0,9.64,2.23,21.78,21.78,0,0,0,7-1.17c9,8.24,14.39,19.58,17.43,31.62,7.72,30.65-4.43,51.4-25.21,66.26,10.15,2.09,14.83,8.36,23.91,21l11.06,15.48,2.8,3.91,14.9,20.85c2.06,2.85,4.08,3.6,6.75,3.6a29.14,29.14,0,0,0,3.4-.26l18.54-1.57L643,526.41l.64,2.52-3.47.87Zm-182.2,48.35a19.4,19.4,0,0,0-.43-2.33l-4.71-18.68a19.63,19.63,0,0,0-19-14.83,20,20,0,0,0-3.75.36l-28.83,5.57-5.24-20.78,8.11-2c30.52-7.69,51.89-20.15,65.34-38.09,15.07-20.11,18.84-45.66,11.21-75.93-5.89-23.4-17.46-40.74-33.72-51.26a90.93,90.93,0,0,1,18.56-20.75,19.66,19.66,0,0,0-.05,9.73l4.79,19a19.61,19.61,0,0,0,19,14.83,20.22,20.22,0,0,0,2.68-.18l6.3-.86,33.88,134.44L450,537.76a19.63,19.63,0,0,0-12.74,18.94C422.2,571.34,403.51,587.3,381.78,597.36Zm36.11-256.49q8.06-3.76,17.2-7.05c20.26-7.27,53.9-15.86,103.35-18.19l-.3,1.64a94.71,94.71,0,0,0-9.95-.53,128.87,128.87,0,0,0-31.3,4.23ZM259,625.86l-4.71-18.68,17.87-6.67c3.94-1.62,4.3-2.64,3.2-7L235.58,435.61c-.92-3.67-1.64-4.77-4.33-4.77-.52,0-1.12,0-1.81.11l-18.9,2.59-4.78-19,50.75-12.79,8.26-2.08,8.28-2.08L299.44,391a115,115,0,0,1,27.94-3.83,66.6,66.6,0,0,1,20.53,3,51.64,51.64,0,0,1,7.34,3,50.12,50.12,0,0,1,6.8,4.11c12.15,8.75,19.43,22.47,23.39,38.18,12.72,50.49-13,77.76-62.31,90.19L296,532.43l13.16,52.24c.92,3.65,1.43,4.94,3.74,4.94a13.61,13.61,0,0,0,2.4-.28l42.32-8.18,4.71,18.68Zm349.12,21.36a354.29,354.29,0,0,1-42.06,10.89c-30.36,6-63.94,9-100.1,9q-8.43,0-17.05-.22a139.5,139.5,0,0,1,1.66,32.3,6.18,6.18,0,0,1-4.75,5.57,6.28,6.28,0,0,1-1.43.17,6.19,6.19,0,0,1-5.31-3c-19.09-32-43.72-56.74-71.22-71.67A6.19,6.19,0,0,1,369,618.85l.07,0c28.83-8.24,53-26.53,72.13-44.27,2.82-2.62,5.55-5.23,8.16-7.79,1.36-1.34,2.7-2.66,4-4a6.21,6.21,0,0,1,4.39-1.82l.27,0a6.16,6.16,0,0,1,5.81,7.29q-.58,3.18-1.25,6.26-1.1,5.16-2.39,10c-.88,3.26-1.82,6.42-2.83,9.45-.28.83-.55,1.66-.84,2.47,3.26,0,6.48.08,9.63.08,57.44,0,96.51-8.67,119.87-16.36s42.29-17.94,56.71-30.8l2.21-.55,3.46-.88a19.61,19.61,0,0,0,12.06-9c.12-.2.21-.41.33-.62l0,.07c.17.11.34.24.51.34A19.69,19.69,0,0,0,676.17,541l63.75-16.07C721.86,582.66,677,624.54,608.13,647.22ZM735.49,421.68l-27.14,6.84,7.6,30.17,2,8.07,2,8.06,1.49,5.94c.92,3.65,1.44,4.93,3.75,4.93a13.82,13.82,0,0,0,2.4-.28l20.17-3.9,7.74-1.49,7.71-1.49,6.7-1.3,4.7,18.68-12.76,3.22-8.29,2.09-8.36,2.1-73.9,18.62-2.27-9-2.43-9.66,6.73-2.52,11.14-4.16c3.93-1.61,4.3-2.63,3.2-7l-4.53-17.94L681.29,464l-1.92-7.62L648,331.69c-.93-3.66-1.64-4.77-4.34-4.77a18,18,0,0,0-1.8.11l-18.9,2.59-4.78-19,93.68-23.61a114.93,114.93,0,0,1,27.93-3.83c34.58,0,51.24,21.17,58.06,48.27C810.53,382,784.81,409.25,735.49,421.68Z" transform="translate(-20.78 -39.6)"/><path class="cls-1" d="M516.87,365.73c-7.3,0-15.85,1.44-25.71,3.92l-19.56,4.93L489.84,447l21.6-5.45c24.8-6.25,44.42-18.33,36.4-50.14C543.17,372.85,533.1,365.73,516.87,365.73Z" transform="translate(-20.78 -39.6)"/><path class="cls-1" d="M516.87,365.73c-7.3,0-15.85,1.44-25.71,3.92l-19.56,4.93L489.84,447l21.6-5.45c24.8-6.25,44.42-18.33,36.4-50.14C543.17,372.85,533.1,365.73,516.87,365.73Z" transform="translate(-20.78 -39.6)"/></svg>