<svg xmlns="http://www.w3.org/2000/svg" viewBox="0 0 629.91 629.6"><defs><style>.cls-1{fill:#fff;}.cls-2{fill:none;stroke:#ec008c;stroke-width:1.05px;stroke-dasharray:37.1 0.74;}.cls-2,.cls-3{stroke-miterlimit:10;}.cls-3,.cls-4{fill:#2f3273;}.cls-3{stroke:#2f3273;stroke-width:5px;}.cls-5{fill:#f27405;}.cls-6{fill:#a3f2a0;}.cls-7{fill:#d9488b;}</style></defs><title>Asset 3</title><g id="Layer_2" data-name="Layer 2"><g id="Layer_5" data-name="Layer 5"><path class="cls-1" d="M627.78,297.76h0c-3.29-12.37-10.26-23-21.94-33.54-.24-.23-2.54-2.38-6.39-9-2.14-3.68-3.74-9.68-5.28-15.49s-3.14-11.8-3.1-16.06c.06-7.48.92-10.45,1.09-11,4.92-14.93,5.67-27.64,2.39-40a64.31,64.31,0,0,0-61.31-47.64c-.68-.38-1.34-.77-2-1.17-4-2.46-8.73-7.15-13.26-11.69S508.76,103,506.3,98.94c-.59-1-1.15-1.93-1.68-2.89a64.15,64.15,0,0,0-47.57-60.54C444.68,32.21,432,33,417,37.86c-.31.1-3.33,1-10.94,1.08H406c-4.3,0-10.5-1.65-16-3.12-5.8-1.54-11.8-3.15-15.48-5.3-6.59-3.85-8.74-6.15-9-6.4-10.5-11.69-21.16-18.67-33.52-22a64.19,64.19,0,0,0-71.12,28.36c-1.16.71-2.36,1.41-3.59,2.08-4.16,2.27-10.57,4-16.76,5.63S228,41.59,223.22,41.7c-.93,0-1.86,0-2.78,0A64.46,64.46,0,0,0,144,52.28c-9.07,9-14.82,20.39-18.09,35.76-.07.33-.79,3.4-4.57,10-2.12,3.7-6.52,8.08-10.78,12.32S101.91,119,98.2,121.1c-6.65,3.76-9.71,4.47-10,4.54-15.39,3.21-26.78,8.91-35.85,17.94a64.29,64.29,0,0,0-10.6,76.91c0,.77,0,1.54,0,2.32-.11,4.73-1.83,11.13-3.49,17.33s-3.38,12.6-5.65,16.74c-.54,1-1.1,2-1.67,2.91A64.14,64.14,0,0,0,2.23,331.25c3.32,12.36,10.32,23,22,33.48.41.36,2.63,2.51,6.42,9,2.16,3.67,3.77,9.67,5.34,15.47s3.17,11.8,3.14,16c0,7.64-1,10.66-1.06,11-4.87,14.95-5.59,27.66-2.27,40a64.17,64.17,0,0,0,61,47.47c.87.49,1.74,1,2.6,1.52,4,2.47,8.72,7.16,13.25,11.71s9.21,9.23,11.67,13.28c.47.78.93,1.57,1.38,2.38a64.17,64.17,0,0,0,47.35,61c12.36,3.34,25.07,2.64,40-2.2.32-.1,3.34-1,10.91-1h.13c4.26,0,10.22,1.61,16,3.18s11.79,3.19,15.46,5.36c6.58,3.88,8.72,6.18,8.94,6.43C275,617,285.64,624,298,627.35a64.15,64.15,0,0,0,72-29.25c.65-.38,1.32-.75,2-1.12,4.16-2.26,10.56-4,16.76-5.63S401.3,588,406,587.88c1.13,0,2.24,0,3.34,0A64.12,64.12,0,0,0,485.6,577c9-9.06,14.76-20.44,18-35.81.12-.53.87-3.54,4.56-10,2.1-3.71,6.49-8.1,10.74-12.35s8.63-8.64,12.34-10.74c6.64-3.78,9.7-4.5,10-4.56,15.38-3.25,26.75-9,35.8-18a64.11,64.11,0,0,0,11.12-75.67c0-1.33,0-2.68,0-4.06.11-4.72,1.83-11.12,3.5-17.32s3.39-12.6,5.66-16.75c.45-.82.91-1.63,1.38-2.42A64.45,64.45,0,0,0,627.78,297.76ZM303.33,402.06l8.73-2.19a28.22,28.22,0,0,0,12.45,9.91,218.08,218.08,0,0,1-24.37,2.31A28.46,28.46,0,0,0,303.33,402.06Zm47.09-268.47a267,267,0,0,0-33.14,1.28,385.81,385.81,0,0,0-69.84,13.95c-.86-3-1.83-6-2.89-8.77a19.53,19.53,0,0,0-3-5.28q1.53-2.16,2.88-4.45c.72-.42,1.44-.82,2.17-1.22,4.15-2.27,10.56-4,16.75-5.63s12.6-3.37,17.34-3.48c1.16,0,2.32,0,3.45,0A64.45,64.45,0,0,0,299,126c12.37,3.3,25.08,2.56,40-2.34.32-.11,3.33-1,11-1.09h.13c4.25,0,10.16,1.58,15.94,3.12s11.79,3.15,15.47,5.3c6.59,3.86,8.74,6.15,9,6.4.38.43.77.86,1.16,1.27A204,204,0,0,0,350.42,133.59Zm-173.3,66a19.46,19.46,0,0,0,13.81,33.17h.33a84,84,0,0,1,15.93,1.41L167,244.27a28.08,28.08,0,0,0-14.68,9.17c-3.88-.37-8.34-.63-13.24-.63-4,0-8.4.18-13,.61a42.17,42.17,0,0,1,2.91-7.16c.39-.73.8-1.45,1.22-2.15a63.73,63.73,0,0,0,12.49-9.69c9.07-9,14.82-20.39,18.09-35.77.07-.32.79-3.39,4.58-10,2.11-3.7,6.51-8.08,10.77-12.32s8.65-8.62,12.36-10.72c6.65-3.76,9.72-4.46,10.05-4.53,1.06-.22,2.11-.46,3.13-.7C195.69,175.93,187.33,189.28,177.12,199.57Zm.58,250.48a135,135,0,0,0,23.1,18.44,65,65,0,0,0-10.23-.93c-.73-.41-1.44-.83-2.14-1.26-4.05-2.47-8.73-7.16-13.26-11.71l-1.94-1.95Q175.52,451.4,177.7,450.05Zm112.92,43a268.46,268.46,0,0,0,33.12-1.63,385.74,385.74,0,0,0,69.69-14.72c.85,2.91,1.81,5.73,2.85,8.39-.46.44-.92.88-1.37,1.33A63.75,63.75,0,0,0,385,499.16c-.77.45-1.54.89-2.33,1.32-4.15,2.26-10.56,4-16.75,5.63s-12.6,3.36-17.34,3.47c-.82,0-1.64,0-2.46,0a63.32,63.32,0,0,0-14.64-6c-12.35-3.35-25.07-2.65-40,2.19-.32.11-3.33,1-10.91,1h-.12c-4.26,0-10.23-1.61-16-3.17s-11.79-3.2-15.46-5.36c-6.58-3.88-8.73-6.19-8.95-6.44a95.26,95.26,0,0,0-8.89-8.79C249.07,489.33,269,492.68,290.62,493Zm172.57-67.86a19.46,19.46,0,0,0-14-33h-.39a88.21,88.21,0,0,1-22.1-2.47l36.06-9.09a28.23,28.23,0,0,0,4.95-1.75,28.12,28.12,0,0,0,5.16-.8l32.44-8.18a62.2,62.2,0,0,1-4.47,12.41c-.49.88-1,1.74-1.48,2.58a64.18,64.18,0,0,0-13,10c-9.05,9-14.76,20.43-18,35.81-.07.33-.78,3.39-4.55,10-2.1,3.7-6.49,8.1-10.74,12.34s-8.63,8.65-12.34,10.75c-.64.37-1.25.7-1.82,1C444.82,449.09,453.05,435.59,463.19,425.15Z"/></g><g id="Layer_12" data-name="Layer 12"><path class="cls-2" d="M319,317.65v0Z"/><path class="cls-2" d="M319,317.45v0Z"/><path class="cls-2" d="M319,317.58v0Z"/><path class="cls-2" d="M319,317.45v0Z"/><path class="cls-2" d="M319,317.51v0Z"/><path class="cls-2" d="M319,317.45v0Z"/><line class="cls-2" x1="318.99" y1="317.45" x2="318.99" y2="317.65"/><line class="cls-2" x1="318.99" y1="317.45" x2="318.99" y2="317.51"/><line class="cls-2" x1="318.99" y1="317.45" x2="318.99" y2="317.28"/><line class="cls-2" x1="318.99" y1="317.45" x2="318.99" y2="317.28"/><line class="cls-2" x1="318.99" y1="317.45" x2="318.99" y2="317.51"/><path class="cls-3" d="M142.74,427.45c-2.79-10.37-9.38-18.34-16.81-25-3-2.72-6.42-7.32-9.83-13.13-3.31-5.62-5.2-12.55-7.15-19.79s-3.78-14.19-3.74-20.71c0-6.73.66-12.41,1.92-16.29,3.09-9.47,4.79-19.68,2-30a46.6,46.6,0,1,0-90,24.2c2.79,10.37,9.38,18.34,16.8,25,3,2.72,6.43,7.32,9.84,13.13,3.3,5.62,5.19,12.55,7.14,19.79s3.79,14.19,3.75,20.71c0,6.73-.66,12.42-1.92,16.29-3.09,9.47-4.79,19.68-2,30.05a46.6,46.6,0,0,0,90-24.21Z"/><path class="cls-3" d="M130.42,222c7.61-7.57,11.25-17.26,13.32-27,.85-4,3.16-9.21,6.5-15.06,3.24-5.66,8.31-10.75,13.62-16s10.42-10.34,16.1-13.55c5.86-3.31,11.1-5.6,15.09-6.43,9.75-2,19.46-5.63,27.06-13.21a46.6,46.6,0,1,0-65.76-66c-7.61,7.57-11.25,17.26-13.32,27-.85,4-3.16,9.21-6.5,15.06-3.23,5.66-8.3,10.74-13.62,16s-10.42,10.34-16.1,13.55c-5.86,3.31-11.1,5.6-15.08,6.43C82,144.8,72.27,148.4,64.66,156a46.6,46.6,0,1,0,65.76,66Z"/><path class="cls-3" d="M303.49,109.11c10.37,2.77,20.57,1,30-2.06,3.87-1.27,9.55-1.9,16.29-2,6.52-.06,13.46,1.77,20.71,3.7s14.18,3.81,19.81,7.11c5.81,3.4,10.42,6.78,13.14,9.81,6.66,7.41,14.65,14,25,16.75a46.6,46.6,0,1,0,24-90c-10.38-2.77-20.58-1-30.05,2.07-3.87,1.27-9.55,1.9-16.28,1.95-6.53.05-13.47-1.77-20.72-3.71s-14.18-3.81-19.81-7.1c-5.81-3.4-10.42-6.78-13.14-9.81-6.66-7.41-14.65-14-25-16.76a46.6,46.6,0,1,0-24,90.05Z"/><path class="cls-3" d="M487.56,201.15c2.75,10.37,9.33,18.37,16.73,25,3,2.73,6.4,7.35,9.79,13.16,3.29,5.63,5.16,12.57,7.09,19.82s3.74,14.19,3.69,20.71c-.06,6.74-.7,12.42-2,16.29-3.12,9.46-4.86,19.66-2.1,30a46.6,46.6,0,1,0,90.08-23.94c-2.76-10.38-9.33-18.37-16.73-25-3-2.72-6.4-7.34-9.8-13.16-3.29-5.63-5.16-12.56-7.08-19.81s-3.75-14.2-3.69-20.72c.06-6.73.7-12.41,2-16.28,3.12-9.47,4.85-19.67,2.09-30a46.6,46.6,0,1,0-90.07,23.94Z"/><path class="cls-3" d="M498.75,407.22c-7.59,7.59-11.2,17.29-13.25,27-.84,4-3.14,9.22-6.46,15.08-3.22,5.67-8.28,10.77-13.58,16.07s-10.4,10.37-16.07,13.59c-5.85,3.33-11.08,5.63-15.07,6.48-9.75,2-19.44,5.67-27,13.27a46.6,46.6,0,0,0,65.93,65.88c7.59-7.6,11.2-17.29,13.25-27,.84-4,3.14-9.22,6.46-15.08,3.22-5.67,8.28-10.77,13.58-16.08s10.4-10.36,16.07-13.59c5.85-3.33,11.08-5.63,15.07-6.47,9.75-2.05,19.44-5.68,27-13.27a46.6,46.6,0,0,0-65.93-65.88Z"/><path class="cls-3" d="M326.94,520.5c-10.36-2.81-20.57-1.12-30.05,2-3.88,1.26-9.56,1.87-16.3,1.89-6.52,0-13.46-1.82-20.7-3.78s-14.16-3.87-19.78-7.18c-5.8-3.42-10.4-6.82-13.11-9.86-6.63-7.43-14.59-14-25-16.85a46.6,46.6,0,1,0-24.36,90c10.36,2.81,20.57,1.12,30-2,3.87-1.25,9.56-1.86,16.29-1.89,6.52,0,13.46,1.82,20.7,3.78s14.17,3.87,19.78,7.18c5.8,3.43,10.4,6.82,13.11,9.86,6.64,7.44,14.6,14,25,16.85a46.6,46.6,0,1,0,24.37-90Z"/><path class="cls-4" d="M219.76,501.25c-6.41-6.43-14.46-9.89-22.67-11.87-4-1-10.37-3.61-17.79-8.15-5.73-3.5-11-8.76-16.52-14.28S152,456.14,148.55,450.39c-4.51-7.43-7.15-13.85-8.09-17.81-2-8.21-5.4-16.27-11.81-22.7a42.74,42.74,0,0,0-60.54,60.36c6.41,6.43,14.47,9.89,22.67,11.88,4,.95,10.37,3.6,17.79,8.14,5.74,3.5,11,8.76,16.52,14.28s10.75,10.81,14.23,16.56c4.52,7.43,7.15,13.85,8.1,17.81,2,8.21,5.4,16.28,11.81,22.71a42.74,42.74,0,0,0,60.53-60.37Z"/><path class="cls-1" d="M189.5,576.68h-.07a45,45,0,0,1-32-13.3c-6-6-10.07-13.81-12.47-23.89-1.05-4.39-4-10.78-7.8-17.1-3.39-5.57-8.72-10.92-13.87-16.09s-10.48-10.51-16-13.91c-6.31-3.85-12.69-6.78-17.08-7.84C80.13,482.11,72.33,478,66.34,472a45.25,45.25,0,0,1,32-77.2h.06a45,45,0,0,1,32,13.3c6,6,10.06,13.82,12.47,23.89,1.05,4.39,4,10.78,7.8,17.1,3.39,5.58,8.71,10.92,13.86,16.09S175,475.7,180.61,479.1c6.3,3.85,12.68,6.79,17.07,7.85,10.07,2.43,17.87,6.53,23.85,12.54a45.25,45.25,0,0,1-32,77.19ZM98.38,399.81a40.25,40.25,0,0,0-28.5,68.67c5.32,5.33,12.35,9,21.49,11.21,4.86,1.17,11.78,4.33,18.51,8.43,6.08,3.72,11.62,9.28,17,14.65s10.91,10.94,14.6,17c4.09,6.74,7.22,13.66,8.39,18.53,2.19,9.15,5.83,16.19,11.15,21.52a40,40,0,0,0,28.44,11.83h.06A40.25,40.25,0,0,0,218,503c-5.31-5.33-12.34-9-21.49-11.21-4.86-1.18-11.78-4.33-18.5-8.44-6.09-3.72-11.63-9.28-17-14.65s-10.9-10.93-14.6-17C142.32,445,139.19,438,138,433.16c-2.19-9.15-5.84-16.19-11.15-21.52a40,40,0,0,0-28.44-11.83Z"/><path class="cls-4" d="M189.5,517.08a14.36,14.36,0,1,1-10.14,4.19,14.25,14.25,0,0,1,10.14-4.19m0-5a19.35,19.35,0,1,0,13.7,5.69,19.28,19.28,0,0,0-13.7-5.69Z"/><path class="cls-1" d="M98.38,425.7a14.36,14.36,0,1,1-10.14,4.19,14.25,14.25,0,0,1,10.14-4.19m0-5a19.36,19.36,0,1,0,13.7,5.69,19.28,19.28,0,0,0-13.7-5.69Z"/><path class="cls-4" d="M189.5,542h0a10.58,10.58,0,0,1-10.55-10.58,2.5,2.5,0,0,1,2.5-2.5h0a2.5,2.5,0,0,1,2.5,2.51,5.58,5.58,0,0,0,5.56,5.57h0a5.58,5.58,0,0,0,5.56-5.56,2.49,2.49,0,0,1,2.5-2.49h0a2.5,2.5,0,0,1,2.5,2.5A10.55,10.55,0,0,1,189.5,542Z"/><path class="cls-1" d="M189.5,517.08a14.36,14.36,0,1,1-10.14,4.19,14.25,14.25,0,0,1,10.14-4.19m0-5a19.35,19.35,0,1,0,13.7,5.69,19.28,19.28,0,0,0-13.7-5.69Z"/><path class="cls-1" d="M189.5,541h0a9.58,9.58,0,0,1-9.55-9.58,1.5,1.5,0,0,1,1.5-1.5h0a1.5,1.5,0,0,1,1.5,1.5,6.59,6.59,0,0,0,6.56,6.58h0a6.57,6.57,0,0,0,6.56-6.56,1.5,1.5,0,0,1,1.5-1.49h0a1.5,1.5,0,0,1,1.5,1.5A9.56,9.56,0,0,1,189.5,541Z"/><path class="cls-1" d="M98.38,449.62h0A9.58,9.58,0,0,1,88.81,440a1.5,1.5,0,0,1,1.5-1.49h0a1.5,1.5,0,0,1,1.49,1.5,6.57,6.57,0,0,0,6.56,6.57h0a6.56,6.56,0,0,0,6.56-6.55,1.5,1.5,0,0,1,1.5-1.5h0a1.5,1.5,0,0,1,1.49,1.5,9.56,9.56,0,0,1-9.56,9.55Z"/><path class="cls-4" d="M524.54,303.56c-2.35,8.77-1.32,17.48,1.07,25.57,1.15,3.91,2.07,10.78,1.86,19.48-.16,6.72-2.07,13.92-4.1,21.45s-4,14.71-7.21,20.61c-4.17,7.63-8.41,13.12-11.37,15.92-6.12,5.81-11.38,12.82-13.74,21.59a42.75,42.75,0,1,0,82.56,22.19c2.36-8.77,1.32-17.48-1.07-25.57-1.15-3.9-2.06-10.78-1.85-19.48.16-6.72,2.07-13.92,4.09-21.45s4-14.71,7.21-20.61c4.18-7.63,8.42-13.12,11.37-15.92,6.12-5.81,11.39-12.82,13.74-21.59a42.75,42.75,0,0,0-82.56-22.19Z"/><path class="cls-1" d="M532.32,484.53a45.25,45.25,0,0,1-43.68-57c2.2-8.19,6.92-15.63,14.43-22.75,3.28-3.11,7.35-8.83,10.9-15.31,3.14-5.73,5.1-13,7-20.06s3.85-14.34,4-20.86c.18-7.39-.48-14.38-1.76-18.71-2.93-9.93-3.28-18.74-1.08-26.93h0a45.25,45.25,0,0,1,87.39,23.49c-2.2,8.19-6.93,15.63-14.44,22.75-3.27,3.11-7.35,8.83-10.9,15.31-3.13,5.73-5.09,13-7,20.06s-3.85,14.34-4,20.86c-.17,7.39.48,14.38,1.76,18.71,2.93,9.93,3.29,18.74,1.09,26.93A45.35,45.35,0,0,1,532.32,484.53ZM527,304.21c-2,7.27-1.61,15.19,1,24.21,1.41,4.8,2.15,12.37,2,20.25-.17,7.12-2.21,14.7-4.18,22s-4,14.91-7.43,21.16c-3.79,6.91-8.22,13.09-11.85,16.54-6.82,6.47-11.09,13.15-13.05,20.42a40.25,40.25,0,0,0,77.74,20.89c1.95-7.27,1.61-15.19-1.05-24.21-1.42-4.8-2.15-12.37-2-20.25.17-7.12,2.2-14.7,4.18-22s4-14.91,7.43-21.16c3.78-6.91,8.21-13.09,11.84-16.54,6.83-6.47,11.09-13.15,13.05-20.42A40.24,40.24,0,1,0,527,304.21Z"/><path class="cls-4" d="M565.81,300.29a14.45,14.45,0,0,1,3.74.5,14.32,14.32,0,1,1-3.74-.5m0-5a19.38,19.38,0,1,0,5,.67,19.57,19.57,0,0,0-5-.67Z"/><path class="cls-1" d="M532.32,424.91a14.45,14.45,0,0,1,3.74.5,14.36,14.36,0,0,1-3.72,28.23,14.45,14.45,0,0,1-3.74-.5,14.36,14.36,0,0,1,3.72-28.23m0-5a19.38,19.38,0,1,0,5,.67,19.37,19.37,0,0,0-5-.67Z"/><path class="cls-4" d="M569.85,324.14a2.5,2.5,0,0,1-1.25-4.66,5.57,5.57,0,0,0-5.56-9.65,2.5,2.5,0,1,1-2.49-4.33,10.57,10.57,0,0,1,10.55,18.31A2.46,2.46,0,0,1,569.85,324.14Z"/><path class="cls-1" d="M565.81,300.29a14.45,14.45,0,0,1,3.74.5,14.32,14.32,0,1,1-3.74-.5m0-5a19.38,19.38,0,1,0,5,.67,19.57,19.57,0,0,0-5-.67Z"/><path class="cls-1" d="M569.85,323.14a1.5,1.5,0,0,1-.75-2.8A6.56,6.56,0,1,0,562.54,309a1.5,1.5,0,0,1-1.49-2.6,9.56,9.56,0,1,1,9.55,16.57A1.46,1.46,0,0,1,569.85,323.14Z"/><path class="cls-1" d="M536.36,447.76a1.5,1.5,0,0,1-.75-2.8,6.56,6.56,0,1,0-6.56-11.37,1.5,1.5,0,1,1-1.5-2.6,9.57,9.57,0,1,1,9.56,16.57A1.48,1.48,0,0,1,536.36,447.76Z"/><path class="cls-4" d="M428.64,490.79c-8.77,2.34-15.8,7.59-21.61,13.71-2.81,2.95-8.31,7.18-15.95,11.34-5.9,3.22-13.09,5.17-20.62,7.18s-14.74,3.9-21.46,4.05c-8.69.2-15.57-.73-19.47-1.89-8.09-2.4-16.79-3.45-25.57-1.11A42.75,42.75,0,0,0,326,606.67c8.77-2.34,15.79-7.59,21.61-13.71,2.81-2.94,8.31-7.17,15.94-11.34,5.9-3.22,13.1-5.16,20.63-7.17s14.74-3.91,21.45-4.06c8.7-.2,15.58.73,19.48,1.89,8.09,2.4,16.79,3.45,25.57,1.11a42.75,42.75,0,0,0-22.05-82.6Z"/><path class="cls-1" d="M314.91,610.64a45.26,45.26,0,0,1-11.59-89c8.19-2.19,17-1.82,26.92,1.13,4.33,1.28,11.33,2,18.71,1.78,6.53-.14,13.82-2.09,20.87-4s14.34-3.83,20.07-7c6.48-3.54,12.21-7.6,15.32-10.87,7.14-7.51,14.59-12.22,22.78-14.4h0a45.25,45.25,0,1,1,23.34,87.43c-8.19,2.18-17,1.81-26.92-1.13-4.33-1.29-11.32-2-18.71-1.79-6.53.14-13.82,2.09-20.87,4s-14.34,3.83-20.07,7c-6.49,3.53-12.22,7.6-15.33,10.87-7.13,7.5-14.59,12.21-22.78,14.4A45.73,45.73,0,0,1,314.91,610.64Zm-.73-85.38a36.76,36.76,0,0,0-9.57,1.23,40.24,40.24,0,1,0,20.76,77.76c7.27-1.94,14-6.19,20.44-13,3.45-3.62,9.64-8,16.56-11.81,6.25-3.42,13.84-5.44,21.17-7.4s14.92-4,22-4.14c7.88-.18,15.44.57,20.24,2,9,2.68,16.94,3,24.21,1.1a40.25,40.25,0,1,0-20.76-77.77h0c-7.27,1.94-14,6.2-20.44,13-3.45,3.63-9.64,8-16.56,11.82-6.26,3.41-13.84,5.43-21.18,7.39s-14.91,4-22,4.14c-7.87.18-15.44-.57-20.24-2A51.41,51.41,0,0,0,314.18,525.26Z"/><path class="cls-4" d="M439.67,517.73A14.36,14.36,0,0,1,443.36,546a14.11,14.11,0,0,1-3.71.49A14.36,14.36,0,0,1,436,518.22a14.65,14.65,0,0,1,3.71-.49m0-5a19.36,19.36,0,1,0,18.69,14.37,19.2,19.2,0,0,0-18.69-14.37Z"/><path class="cls-1" d="M315,551a14.37,14.37,0,1,1-3.72.49A14.67,14.67,0,0,1,315,551m0-5a19.36,19.36,0,1,0,18.69,14.37A19.33,19.33,0,0,0,315,546Z"/><path class="cls-4" d="M439.64,542.65a10.5,10.5,0,0,1-5.27-1.41,2.5,2.5,0,0,1,2.5-4.33,5.56,5.56,0,1,0,5.58-9.63A2.5,2.5,0,0,1,445,523a10.56,10.56,0,0,1-5.31,19.7Z"/><path class="cls-1" d="M439.67,517.73A14.36,14.36,0,0,1,443.36,546a14.11,14.11,0,0,1-3.71.49A14.36,14.36,0,0,1,436,518.22a14.65,14.65,0,0,1,3.71-.49m0-5a19.36,19.36,0,1,0,18.69,14.37,19.2,19.2,0,0,0-18.69-14.37Z"/><path class="cls-1" d="M439.65,541.65a9.53,9.53,0,0,1-4.78-1.28,1.5,1.5,0,0,1,1.5-2.6A6.56,6.56,0,1,0,443,526.41a1.5,1.5,0,0,1,1.5-2.6,9.56,9.56,0,0,1-4.8,17.84Z"/><path class="cls-1" d="M315,574.93a9.46,9.46,0,0,1-4.77-1.28,1.5,1.5,0,0,1,1.5-2.6,6.56,6.56,0,1,0,6.57-11.36,1.5,1.5,0,0,1,1.51-2.6A9.56,9.56,0,0,1,315,574.93Z"/><path class="cls-4" d="M105.36,325c2.35-8.77,1.31-17.47-1.08-25.57-1.15-3.9-2.07-10.78-1.86-19.47.16-6.72,2.06-13.93,4.08-21.45s4-14.72,7.21-20.62c4.17-7.63,8.41-13.12,11.36-15.92,6.12-5.81,11.38-12.83,13.74-21.6a42.75,42.75,0,0,0-82.57-22.16c-2.36,8.77-1.32,17.48,1.08,25.57,1.15,3.91,2.07,10.79,1.86,19.48-.16,6.72-2.07,13.93-4.09,21.45s-4,14.72-7.2,20.61c-4.17,7.64-8.41,13.13-11.36,15.93C30.4,287,25.15,294,22.79,302.81A42.74,42.74,0,1,0,105.36,325Z"/><path class="cls-1" d="M64.07,359.14a45.29,45.29,0,0,1-43.69-57c2.19-8.19,6.91-15.63,14.43-22.76,3.27-3.11,7.34-8.83,10.89-15.32,3.13-5.72,5.09-13,7-20.06s3.85-14.34,4-20.86c.18-7.38-.48-14.38-1.76-18.71-2.94-9.93-3.29-18.74-1.1-26.92A45.25,45.25,0,1,1,141.22,201c-2.2,8.19-6.92,15.63-14.43,22.76-3.27,3.11-7.34,8.83-10.89,15.31-3.13,5.73-5.09,13-7,20.07s-3.85,14.33-4,20.86c-.18,7.38.48,14.38,1.76,18.71,2.93,9.93,3.29,18.73,1.1,26.92h0A45.33,45.33,0,0,1,64.07,359.14ZM97.53,149a40.33,40.33,0,0,0-38.88,29.82C56.7,186.09,57.05,194,59.71,203c1.42,4.8,2.16,12.37,2,20.24-.17,7.12-2.2,14.71-4.17,22s-4,14.91-7.43,21.16c-3.78,6.92-8.2,13.1-11.83,16.55-6.83,6.47-11.09,13.15-13,20.43A40.25,40.25,0,0,0,103,324.32c2-7.28,1.6-15.2-1.07-24.22-1.41-4.8-2.15-12.37-2-20.24.17-7.12,2.2-14.71,4.17-22s4-14.91,7.42-21.17c3.78-6.91,8.21-13.09,11.84-16.54,6.82-6.47,11.09-13.15,13-20.43A40.26,40.26,0,0,0,97.53,149Z"/><path class="cls-4" d="M64.06,299.52a14.4,14.4,0,0,1,3.74.5,14.36,14.36,0,0,1-3.71,28.23,14.45,14.45,0,0,1-3.74-.5,14.36,14.36,0,0,1,3.71-28.23m0-5a19.39,19.39,0,1,0,5,.67,19.36,19.36,0,0,0-5-.67Z"/><path class="cls-1" d="M97.51,174.89a14.36,14.36,0,1,1-13.85,10.64,14.32,14.32,0,0,1,13.85-10.64m0-5a19.39,19.39,0,1,0,5,.67,19.36,19.36,0,0,0-5-.67Z"/><path class="cls-4" d="M64.09,324.46a10.77,10.77,0,0,1-2.75-.37,10.57,10.57,0,0,1-2.54-19.36,2.5,2.5,0,1,1,2.49,4.33,5.58,5.58,0,0,0-2,7.61,5.57,5.57,0,0,0,7.6,2A2.5,2.5,0,1,1,69.35,323,10.46,10.46,0,0,1,64.09,324.46Z"/><path class="cls-1" d="M64.06,299.52a14.4,14.4,0,0,1,3.74.5,14.36,14.36,0,0,1-3.71,28.23,14.45,14.45,0,0,1-3.74-.5,14.36,14.36,0,0,1,3.71-28.23m0-5a19.39,19.39,0,1,0,5,.67,19.36,19.36,0,0,0-5-.67Z"/><path class="cls-1" d="M64.09,323.45A9.56,9.56,0,0,1,59.3,305.6a1.5,1.5,0,1,1,1.49,2.6,6.58,6.58,0,0,0-2.4,9,6.58,6.58,0,0,0,9,2.4,1.5,1.5,0,1,1,1.49,2.6A9.46,9.46,0,0,1,64.09,323.45Z"/><path class="cls-1" d="M97.54,198.82a9.7,9.7,0,0,1-2.5-.33,9.46,9.46,0,0,1-5.8-4.46A9.56,9.56,0,0,1,92.74,181a1.5,1.5,0,1,1,1.5,2.6,6.56,6.56,0,0,0,6.56,11.37,1.5,1.5,0,0,1,1.5,2.6A9.5,9.5,0,0,1,97.54,198.82Z"/><path class="cls-4" d="M200.63,138.79c8.78-2.34,15.8-7.59,21.61-13.71,2.81-3,8.31-7.18,15.95-11.34,5.89-3.22,13.09-5.17,20.62-7.18s14.74-3.91,21.45-4.06c8.7-.2,15.58.73,19.48,1.89,8.09,2.4,16.79,3.45,25.57,1.11a42.75,42.75,0,1,0-22.06-82.6c-8.77,2.34-15.79,7.59-21.61,13.71-2.81,3-8.31,7.18-15.94,11.34-5.9,3.22-13.1,5.17-20.63,7.18S230.34,59,223.62,59.19c-8.7.2-15.57-.73-19.48-1.89-8.09-2.4-16.79-3.45-25.56-1.11a42.75,42.75,0,0,0,22,82.6Z"/><path class="cls-1" d="M189.62,142.74a45.25,45.25,0,0,1-11.69-89c8.19-2.19,17-1.82,26.93,1.13,4.32,1.28,11.3,2,18.7,1.78,6.53-.15,13.82-2.09,20.87-4s14.34-3.83,20.07-7c6.49-3.54,12.21-7.6,15.33-10.87,7.13-7.51,14.58-12.22,22.77-14.41A45.25,45.25,0,0,1,326,107.91c-8.19,2.19-17,1.82-26.92-1.13-4.33-1.28-11.31-2-18.71-1.78-6.53.15-13.82,2.09-20.87,4s-14.34,3.83-20.07,7c-6.48,3.54-12.21,7.6-15.32,10.87-7.14,7.51-14.59,12.22-22.78,14.41h0A45.61,45.61,0,0,1,189.62,142.74Zm-.82-85.36a36.89,36.89,0,0,0-9.58,1.23A40.24,40.24,0,1,0,200,136.37h0c7.27-1.94,14-6.2,20.44-13,3.45-3.63,9.64-8,16.56-11.82,6.25-3.41,13.84-5.44,21.17-7.4s14.92-4,22-4.14c7.88-.18,15.44.57,20.24,2,9,2.68,16.94,3,24.21,1.09a40.24,40.24,0,1,0-20.77-77.76c-7.27,1.94-14,6.2-20.44,13-3.45,3.63-9.64,8-16.56,11.82-6.26,3.41-13.84,5.44-21.17,7.4s-14.92,4-22,4.14c-7.88.18-15.45-.57-20.25-2A51.29,51.29,0,0,0,188.8,57.38Z"/><path class="cls-4" d="M189.62,83.13a14.38,14.38,0,1,1-3.72.49,14.67,14.67,0,0,1,3.72-.49m0-5A19.36,19.36,0,1,0,208.31,92.5a19.22,19.22,0,0,0-18.69-14.37Z"/><path class="cls-1" d="M314.29,49.84A14.36,14.36,0,0,1,318,78.07a14.65,14.65,0,0,1-3.71.49,14.36,14.36,0,0,1,0-28.72m0-5A19.36,19.36,0,1,0,333,59.2a19.33,19.33,0,0,0-18.69-14.36Z"/><path class="cls-4" d="M185.56,107a2.49,2.49,0,0,1-1.25-.33A10.57,10.57,0,1,1,194.9,88.35a2.5,2.5,0,1,1-2.51,4.32,5.57,5.57,0,0,0-5.57,9.64,2.5,2.5,0,0,1-1.26,4.66Z"/><path class="cls-1" d="M189.62,83.13a14.38,14.38,0,1,1-3.72.49,14.67,14.67,0,0,1,3.72-.49m0-5A19.36,19.36,0,1,0,208.31,92.5a19.22,19.22,0,0,0-18.69-14.37Z"/><path class="cls-1" d="M185.57,106a1.43,1.43,0,0,1-.75-.2,9.56,9.56,0,0,1,9.57-16.56,1.5,1.5,0,0,1-1.5,2.6,6.56,6.56,0,1,0-6.57,11.36,1.51,1.51,0,0,1,.55,2A1.49,1.49,0,0,1,185.57,106Z"/><path class="cls-1" d="M310.24,72.68a1.53,1.53,0,0,1-.75-.2,9.57,9.57,0,0,1,9.58-16.56,1.5,1.5,0,0,1-1.5,2.6A6.56,6.56,0,0,0,311,69.88a1.5,1.5,0,0,1-.75,2.8Z"/><path class="cls-4" d="M410.93,128c6.42,6.43,14.48,9.88,22.69,11.85,3.95,1,10.37,3.6,17.8,8.13,5.73,3.49,11,8.75,16.53,14.26s10.76,10.8,14.25,16.54c4.52,7.43,7.16,13.85,8.11,17.81,2,8.2,5.42,16.26,11.84,22.69a42.75,42.75,0,1,0,60.47-60.44c-6.42-6.42-14.48-9.87-22.68-11.84-4-1-10.38-3.6-17.81-8.13-5.73-3.49-11-8.75-16.53-14.26s-10.76-10.8-14.25-16.54c-4.52-7.43-7.16-13.85-8.11-17.81-2-8.2-5.42-16.27-11.84-22.69A42.74,42.74,0,0,0,410.93,128Z"/><path class="cls-1" d="M532.39,234.28h0a45,45,0,0,1-32-13.27c-6-6-10.08-13.8-12.5-23.87-1.05-4.39-4-10.78-7.81-17.09-3.4-5.57-8.73-10.91-13.89-16.07s-10.49-10.5-16.06-13.9c-6.31-3.84-12.7-6.77-17.09-7.83-10.07-2.42-17.87-6.51-23.87-12.51a45.25,45.25,0,0,1,32-77.23h0a45,45,0,0,1,32,13.26c6,6,10.08,13.81,12.5,23.88,1.05,4.39,4,10.78,7.81,17.09,3.4,5.58,8.73,10.91,13.89,16.07s10.49,10.5,16.07,13.9c6.31,3.84,12.69,6.77,17.08,7.82,10.07,2.43,17.88,6.52,23.87,12.52a45.25,45.25,0,0,1-32,77.23ZM441.16,57.51a40.25,40.25,0,0,0-28.46,68.7h0c5.32,5.32,12.35,9,21.5,11.18,4.87,1.18,11.79,4.32,18.52,8.42,6.09,3.71,11.63,9.26,17,14.63s10.91,10.93,14.62,17c4.09,6.73,7.24,13.66,8.41,18.52,2.19,9.15,5.85,16.19,11.17,21.51a40,40,0,0,0,28.45,11.8h0a40.25,40.25,0,0,0,28.46-68.7c-5.32-5.32-12.35-9-21.5-11.18-4.87-1.18-11.79-4.32-18.52-8.42-6.08-3.71-11.63-9.26-17-14.63s-10.91-10.92-14.62-17c-4.09-6.74-7.24-13.66-8.4-18.52-2.2-9.15-5.86-16.19-11.18-21.51a40,40,0,0,0-28.45-11.8Z"/><path class="cls-4" d="M441.17,83.4A14.36,14.36,0,1,1,431,87.6a14.28,14.28,0,0,1,10.15-4.2m0-5a19.36,19.36,0,1,0,13.69,5.68,19.29,19.29,0,0,0-13.69-5.68Z"/><path class="cls-1" d="M532.39,174.67a14.37,14.37,0,1,1-10.15,4.21,14.28,14.28,0,0,1,10.15-4.21m0-5a19.36,19.36,0,1,0,13.69,5.68,19.29,19.29,0,0,0-13.69-5.68Z"/><path class="cls-4" d="M449.23,100.26h0a2.5,2.5,0,0,1-2.5-2.5,5.57,5.57,0,0,0-5.56-5.57h0a5.57,5.57,0,0,0-5.57,5.57,2.5,2.5,0,0,1-2.5,2.5h0a2.5,2.5,0,0,1-2.5-2.5,10.58,10.58,0,0,1,10.57-10.57h0a10.58,10.58,0,0,1,10.56,10.57A2.5,2.5,0,0,1,449.23,100.26Z"/><path class="cls-1" d="M441.17,83.4A14.36,14.36,0,1,1,431,87.6a14.28,14.28,0,0,1,10.15-4.2m0-5a19.36,19.36,0,1,0,13.69,5.68,19.29,19.29,0,0,0-13.69-5.68Z"/><path class="cls-1" d="M449.23,99.26h0a1.5,1.5,0,0,1-1.5-1.5,6.57,6.57,0,0,0-6.56-6.57h0a6.56,6.56,0,0,0-6.57,6.57,1.5,1.5,0,0,1-1.5,1.5h0a1.5,1.5,0,0,1-1.5-1.5,9.56,9.56,0,0,1,9.57-9.57h0a9.58,9.58,0,0,1,9.56,9.57A1.5,1.5,0,0,1,449.23,99.26Z"/><path class="cls-1" d="M540.45,190.53h0A1.5,1.5,0,0,1,539,189a6.56,6.56,0,0,0-6.56-6.56h0a6.56,6.56,0,0,0-6.56,6.56,1.5,1.5,0,0,1-1.5,1.5h0a1.5,1.5,0,0,1-1.5-1.5,9.56,9.56,0,0,1,9.56-9.56h0A9.57,9.57,0,0,1,542,189,1.5,1.5,0,0,1,540.45,190.53Z"/><path class="cls-5" d="M453.32,409.81a4.46,4.46,0,0,0-4.19-2.67c-26.42.61-51.3-10.59-70-20.43a4.46,4.46,0,0,0-6,6,134,134,0,0,0,11.08,17.81c-42.92,14.19-73.87,16.91-92.56,16.63-43.33-.66-71.19-17.38-85.17-51.11a4.43,4.43,0,0,0-2.41-2.42,4.5,4.5,0,0,0-3.42,0L161.9,389.71a4.45,4.45,0,0,0-2.42,5.82c22,53,67.39,81.51,131.37,82.49a254.52,254.52,0,0,0,31.27-1.55c25.61-2.79,53.32-9.23,82.44-19.15a101.11,101.11,0,0,0,5.8,22.57,4.48,4.48,0,0,0,4.15,2.83l.31,0a4.44,4.44,0,0,0,4-3.4c6.26-26.09,17.87-48.42,33.58-64.6A4.47,4.47,0,0,0,453.32,409.81Z"/><path class="cls-6" d="M480.49,232.5C459.1,179.28,414,150.26,350,148.59a254.55,254.55,0,0,0-31.29,1.2c-25.64,2.52-53.41,8.65-82.65,18.25a100.06,100.06,0,0,0-5.55-22.63,4.46,4.46,0,0,0-8.49.5c-6.55,26-18.4,48.23-34.29,64.23a4.46,4.46,0,0,0,3.17,7.6h1.19c26,0,50.31,11.3,68.65,21.19a4.46,4.46,0,0,0,6.08-6A133.82,133.82,0,0,0,256,215C299,201.31,330,198.92,348.7,199.41c43.32,1.14,71,18.16,84.61,52a4.46,4.46,0,0,0,5.8,2.48L478,238.3A4.47,4.47,0,0,0,480.49,232.5Z"/><path class="cls-1" d="M562.26,218.68c-8.82-35-36-49.47-74.46-39.77l-61.24,15.43A13.23,13.23,0,0,0,417,210.4l1.52,6-10,2.58c-.88-.68-1.78-1.35-2.72-2C393,208.68,376.39,207,356.4,212L295.76,227.3a13.24,13.24,0,0,0-9.6,16.07l1.69,6.7-1.47.38c-1.09-.83-2.2-1.63-3.36-2.36-13.24-8.33-30.42-9.91-51.07-4.71l-61.24,15.44a13.16,13.16,0,0,0-10,13,13.17,13.17,0,0,0-7.12-3.16,121.38,121.38,0,0,0-43.4,2.66c-38.6,9.73-57.43,36.18-49.15,69,9.57,38,41.43,39.2,62.51,40l3.33.13c19.39.78,22.1,3.59,23.67,9.83,1.14,4.54,3.06,12.14-16.41,17a62.2,62.2,0,0,1-14.91,2L113,396.68a13.21,13.21,0,0,0-15.09-7l-13.28,3.34A13.26,13.26,0,0,0,75,409.13l8.19,32.5a13.22,13.22,0,0,0,10.16,9.72A76.56,76.56,0,0,0,108,452.53a147.91,147.91,0,0,0,34.77-4.26c18.1-4.56,32-12.23,41.24-22.79a50.86,50.86,0,0,0,6.8-9.93l5.36-1.51,1.09,4.32a13.23,13.23,0,0,0,16.06,9.6l65.2-16.43a13.23,13.23,0,0,0,9.6-16.06l-1.2-4.76,34.2-8.57,1.19,4.71a13.23,13.23,0,0,0,12.82,10,13.37,13.37,0,0,0,3.24-.4l49.95-12.59a13.24,13.24,0,0,0,8.12-6c.22-.37.42-.75.6-1.13.35.25.7.49,1.07.71a13.22,13.22,0,0,0,10,1.47L459.08,366a13.21,13.21,0,0,0,4.8-2.31,14.21,14.21,0,0,0,2.07.17,13.12,13.12,0,0,0,3.23-.41l65.2-16.43A13.22,13.22,0,0,0,544,331l-2.7-10.7a13.22,13.22,0,0,0-15.34-9.76l-19.67,3.8-4.2-16.67,8.18-2.06c20.69-5.22,35.18-13.61,44.3-25.66C564.82,256.38,567.41,239.13,562.26,218.68Z"/><path class="cls-7" d="M146.57,317.75l-7.22-16.1c-1.3-2.62-2.09-3.27-3.23-3.61-3.18-.89-9.37-1.22-19.68,1.38C96,304.56,88.37,316,91.92,330.05c4.14,16.44,19.61,17.61,36.71,18.56,21.37,1.15,45.41,2.05,52.9,31.78,7.74,30.71-13.64,47.91-42,55.05-18,4.54-36.62,4.38-43.52,2.95l-8.18-32.5,13.27-3.34L109.28,419c1.25,2.42,2,3.07,5.07,3.36a71.34,71.34,0,0,0,23-2.23c20.22-5.09,30.36-15.87,26-33.11-4.39-17.44-19.37-19.14-36-19.81-21.52-.9-46-.21-53.54-30.13-7.15-28.34,12-46,39.55-53a108,108,0,0,1,38.61-2.35l8.49,33.69Z"/><path class="cls-7" d="M210.1,415.13l-2.7-10.7,12.14-4.54c2.67-1.09,2.92-1.79,2.17-4.76L193.69,284c-.75-3-1.34-3.66-4.17-3.16l-12.83,1.76-2.75-10.9,61.24-15.44c36.66-9.24,52.66,7.39,58.4,30.18,8.59,34.09-8.92,52.41-42.42,60.85l-21,5.3,9.53,37.85c.8,3.17,1.1,3.52,4.17,3.16L272.61,388l2.69,10.7Zm35.83-82c20-5,36-13.69,29-41.24-5.24-20.81-18.88-25.59-41.67-19.85l-22,5.54,15.23,60.45Z"/><path class="cls-7" d="M404.91,366l-2.7-10.71,15.36-5.13-26.79-36.88c-4.17-5.69-7.64-6.92-15.57-4.93l-21.8,5.5,11.34,45c.79,3.18,1.09,3.52,4.17,3.17l13.47-1.71,2.7,10.7-49.94,12.59-2.7-10.71,12.14-4.53c2.67-1.09,2.92-1.79,2.17-4.76l-28-111.18c-.74-3-1.34-3.67-4.17-3.17L301.74,251,299,240.13l60.64-15.28c35.68-9,49.79,8.53,54.58,27.56,5.35,21.2-3.2,35.79-17.81,45.59,7.29,1.32,9.93,5.08,14.75,11.66L433.36,341c2,2.87,4.22,3.36,7.3,3l12.53-1.26,2.65,10.5Zm-36.86-71c18.82-4.74,33.08-14.23,27.29-37.22-5.1-20.22-19.38-21.68-43.55-15.58l-15.46,3.89,13.48,53.51Z"/><path class="cls-7" d="M466,350.65l-2.7-10.7,12.14-4.53c2.67-1.1,2.92-1.79,2.17-4.76l-28-111.18c-.75-3-1.34-3.67-4.17-3.17l-12.83,1.76-2.75-10.9L491,191.74c36.66-9.24,52.66,7.39,58.4,30.18C558,256,540.51,274.33,507,282.77l-21,5.29,9.53,37.85c.8,3.17,1.1,3.52,4.17,3.17l28.74-5.56,2.7,10.7Zm35.83-81.95c20-5,36-13.7,29-41.25-5.24-20.81-18.88-25.59-41.67-19.84l-22,5.54,15.23,60.44Z"/></g></g></svg>